<?xml version="1.0" encoding="UTF-8" standalone="no"?>
<svg
   xmlns:dc="http://purl.org/dc/elements/1.1/"
   xmlns:cc="http://creativecommons.org/ns#"
   xmlns:rdf="http://www.w3.org/1999/02/22-rdf-syntax-ns#"
   xmlns:svg="http://www.w3.org/2000/svg"
   xmlns="http://www.w3.org/2000/svg"
   xmlns:sodipodi="http://sodipodi.sourceforge.net/DTD/sodipodi-0.dtd"
   xmlns:inkscape="http://www.inkscape.org/namespaces/inkscape"
   width="210mm"
   height="120mm"
   viewBox="0 0 793.7008 453.54331"
   version="1.1"
   id="svg10"
   sodipodi:docname="inspire.svg"
   inkscape:version="0.92.3 (2405546, 2018-03-11)"
   inkscape:export-filename="C:\Users\SAM\Documents\web app\django_project\website\ecommerce\static\images\drones\inspire_icon.png"
   inkscape:export-xdpi="299.96188"
   inkscape:export-ydpi="299.96188">
  <metadata
     id="metadata14">
    <rdf:RDF>
      <cc:Work
         rdf:about="">
        <dc:format>image/svg+xml</dc:format>
        <dc:type
           rdf:resource="http://purl.org/dc/dcmitype/StillImage" />
        <dc:title>inspire</dc:title>
      </cc:Work>
    </rdf:RDF>
  </metadata>
  <sodipodi:namedview
     pagecolor="#ffffff"
     bordercolor="#666666"
     borderopacity="1"
     objecttolerance="10"
     gridtolerance="10"
     guidetolerance="10"
     inkscape:pageopacity="0"
     inkscape:pageshadow="2"
     inkscape:window-width="1280"
     inkscape:window-height="961"
     id="namedview12"
     showgrid="false"
     units="mm"
     height="120mm"
     inkscape:zoom="0.9953373"
     inkscape:cx="530.90784"
     inkscape:cy="226.77165"
     inkscape:window-x="-8"
     inkscape:window-y="-8"
     inkscape:window-maximized="1"
     inkscape:current-layer="g850" />
  <!-- Generator: Sketch 51.3 (57544) - http://www.bohemiancoding.com/sketch -->
  <title
     id="title2">inspire</title>
  <desc
     id="desc4">Created with Sketch.</desc>
  <defs
     id="defs6" />
  <g
     id="g850"
     transform="matrix(1.0039461,0,0,1.1807236,300.92262,-23.045205)"
     style="fill:#666666">
    <path
       style="fill:#b380ff;stroke-width:0.61576176"
       d="m 299.94032,369.90306 c -0.98575,-0.46742 -2.5988,-1.76085 -3.58455,-2.87429 -1.5813,-1.78614 -1.78985,-2.46561 -1.7716,-5.77212 0.0239,-4.33644 1.25102,-6.62092 4.50248,-8.38221 4.27674,-2.31668 9.39403,-0.82462 11.9485,3.48384 0.96912,1.63456 1.16509,2.76646 0.93426,5.39608 -0.36289,4.13395 -2.0012,6.68009 -5.16307,8.02407 -2.88912,1.22804 -4.47819,1.25688 -6.86602,0.12463 z m 4.95864,-6.84331 c 1.20596,-1.28112 0.85776,-3.66659 -0.61996,-4.2473 -1.73431,-0.68154 -3.44254,0.44687 -3.44254,2.27405 0,2.18674 2.64992,3.47387 4.0625,1.97325 z m -21.12999,0.56002 c -0.16614,-0.45993 -0.22492,-3.78572 -0.13061,-7.39065 0.16135,-6.16773 0.2604,-6.62485 1.67903,-7.74825 0.82917,-0.65661 2.57664,-1.34768 3.88327,-1.53571 4.76839,-0.68619 4.97432,-0.81293 6.23318,-3.83617 0.67135,-1.61228 1.22064,-3.05249 1.22064,-3.20044 0,-0.14796 -1.00816,-1.25061 -2.24035,-2.45035 l -2.24035,-2.18134 -0.009,-7.7822 c -0.008,-6.34755 -0.20034,-8.07149 -1.04549,-9.35141 -0.5699,-0.86305 -1.03618,-2.07926 -1.03618,-2.70268 0,-0.97828 -0.16609,-1.02412 -1.21308,-0.33478 -1.58229,1.0418 -1.67122,0.87854 -5.0396,-9.25135 -3.02794,-9.10615 -3.06708,-9.30708 -1.81257,-9.30708 1.06027,0 1.07681,-0.86451 0.12147,-6.3466 l -0.71889,-4.12529 -27.4816,-9.95867 c -15.11488,-5.47726 -27.95207,-9.97541 -28.5271,-9.9959 -0.91074,-0.0324 -1.04549,0.61131 -1.04549,4.99472 0,5.80546 -0.68911,7.02659 -3.96522,7.02659 -4.07966,0 -4.39875,-0.55571 -4.39875,-7.6608 v -6.34683 l -2.54752,-1.16005 c -3.13112,-1.42581 -3.86463,-2.3263 -4.487,-5.50847 -0.36583,-1.87053 -0.77703,-2.48894 -1.65489,-2.48894 -0.97104,0 -1.18532,0.48184 -1.27011,2.85597 -0.0561,1.57078 -0.32493,5.11081 -0.59742,7.86672 -0.51179,5.1761 -0.54283,5.22861 -3.93064,6.64906 -1.50474,0.63091 -1.64203,0.97023 -1.63235,4.03442 0.006,1.84006 0.53875,9.77151 1.18428,17.62543 1.4203,17.27997 1.40424,16.18807 0.25604,17.40782 -1.40143,1.48877 -6.35324,1.33691 -7.69314,-0.23593 -0.66653,-0.78241 -1.89496,-5.48071 -3.36029,-12.85187 -1.27032,-6.39024 -3.02945,-14.72615 -3.90918,-18.52425 -1.41346,-6.10245 -1.79793,-7.02516 -3.30553,-7.93325 -2.16403,-1.30349 -2.25661,-1.64896 -2.85905,-10.66863 -0.40959,-6.13223 -0.34304,-7.76166 0.36606,-8.96258 1.2641,-2.14088 0.49842,-8.36947 -1.02887,-8.36947 -0.59609,0 -10.98273,2.58124 -23.08143,5.7361 -12.12334,3.16127 -22.59613,5.57867 -23.33096,5.38541 -0.73333,-0.19287 -1.73328,-1.17229 -2.22211,-2.17649 -0.85898,-1.76461 -0.83431,-1.84885 0.73592,-2.51324 0.89358,-0.37809 13.4508,-3.56188 27.90495,-7.07509 14.45414,-3.5132 26.49967,-6.62072 26.76783,-6.9056 0.26817,-0.28488 0.94319,-1.48749 1.50005,-2.67246 1.25309,-2.66651 3.26396,-3.05821 6.55194,-1.27626 l 2.34442,1.27057 7.0364,-1.55039 c 3.87001,-0.85273 7.1302,-1.55041 7.24486,-1.55041 0.11466,0 0.0537,-0.8219 -0.1354,-1.82644 -0.18912,-1.00455 -0.0331,-2.44333 0.34675,-3.19728 0.78253,-1.55329 0.37453,-3.58404 -0.8177,-4.07006 -0.43957,-0.17919 -2.62914,0.37983 -4.86572,1.24226 -2.23658,0.86243 -4.88897,1.48245 -5.8942,1.37782 -2.4405,-0.25402 -2.7669,-2.053 -0.52378,-2.88685 5.38855,-2.0031 15.74605,-7.61419 16.38312,-8.87541 0.99355,-1.96698 2.52355,-2.32047 4.74992,-1.09741 1.8538,1.01838 2.02959,0.98432 8.03714,-1.55766 5.94471,-2.5154 8.0501,-2.76468 8.0501,-0.95314 0,1.10094 -2.14653,2.26228 -7.61718,4.12112 -2.38224,0.80945 -4.33134,1.66827 -4.33134,1.90847 0,0.24022 0.6721,0.90458 1.49356,1.47636 1.3549,0.94309 1.49357,1.44725 1.49357,5.43015 0,2.4148 0.26733,4.56605 0.59406,4.78057 0.32673,0.21452 2.7148,0.0606 5.30682,-0.34201 3.57886,-0.55591 5.02582,-0.55405 6.01393,0.008 2.03709,1.15816 1.20672,2.03128 -3.60123,3.78661 -2.45131,0.89494 -4.78699,1.85822 -5.1904,2.14062 -0.42101,0.29471 -0.73348,1.89567 -0.73348,3.75799 0,2.06897 -0.34265,3.64675 -0.9457,4.35465 -0.86617,1.01676 -0.85361,1.16072 0.14936,1.71177 0.60228,0.3309 11.66083,4.80501 24.57457,9.94247 21.94314,8.72963 23.70229,9.32466 26.88417,9.09359 1.87256,-0.13598 3.77952,-0.37481 4.23768,-0.53073 1.39054,-0.47321 2.06491,3.47443 0.97576,5.71189 -1.14995,2.36235 -1.16249,4.51766 -0.0355,6.10053 0.64168,0.90125 0.88224,3.06344 0.89614,8.05456 0.0179,6.40621 -0.054,6.8226 -1.17585,6.8226 -0.95143,0 -1.19319,0.42022 -1.1867,2.06264 0.011,2.80031 0.61102,4.97925 1.25462,4.5567 0.29123,-0.19121 0.5295,-0.77825 0.5295,-1.30454 0,-0.52628 0.67211,-1.89296 1.49357,-3.03708 1.35823,-1.89172 1.49356,-2.64356 1.49356,-8.29739 0,-5.13647 -0.22861,-6.70346 -1.31516,-9.01466 -1.29536,-2.75536 -1.29857,-2.83022 -0.21309,-4.97147 0.96051,-1.89472 1.01704,-2.6238 0.44007,-5.67583 -0.36411,-1.92601 -1.34359,-5.31168 -2.17662,-7.52371 -0.83304,-2.21206 -1.51462,-4.77536 -1.51462,-5.69626 0,-2.15447 3.2119,-5.60248 7.33844,-7.8779 2.69566,-1.4864 3.84262,-1.72209 8.49335,-1.74525 4.69991,-0.0234 5.80259,0.19533 8.75859,1.73744 3.42311,1.78578 7.67063,6.05486 7.67063,7.70956 0,0.49621 -0.82958,3.1031 -1.8435,5.79308 -2.30428,6.11331 -2.83615,10.74687 -1.53938,13.41083 0.87827,1.80423 0.8626,2.10703 -0.22649,4.37635 -0.95606,1.99213 -1.17004,3.74138 -1.17004,9.56493 0,4.51478 0.24177,7.28568 0.65964,7.56003 0.3628,0.2382 1.14507,1.58492 1.73838,2.99272 l 1.07876,2.55965 0.64798,-2.47928 c 1.00528,-3.84633 0.85228,-4.59211 -0.98827,-4.81709 -1.64132,-0.20063 -1.6431,-0.20641 -1.82075,-5.91277 -0.15037,-4.82988 0.0275,-6.17895 1.15185,-8.73616 1.27826,-2.90731 1.29091,-3.11055 0.32718,-5.25748 -0.55137,-1.22829 -1.00249,-3.04539 -1.00249,-4.03799 0,-1.97059 1.413,-3.76022 2.07306,-2.62564 0.21294,0.36601 1.98849,0.66548 3.94567,0.66548 3.12817,0 6.46536,-1.15906 27.59569,-9.58441 13.22046,-5.27143 24.13182,-9.67971 24.24749,-9.79619 0.11566,-0.11648 -0.22039,-0.86499 -0.74679,-1.66336 -0.58025,-0.88007 -0.95707,-2.75236 -0.95707,-4.7554 v -3.30381 l -3.30826,-1.31492 c -1.81953,-0.72321 -3.65005,-1.31492 -4.06779,-1.31492 -0.41775,0 -1.2814,-0.4284 -1.91923,-0.95199 -1.14624,-0.94096 -1.14584,-0.96354 0.0352,-1.94834 0.79541,-0.66327 1.89387,-0.88561 3.28584,-0.6651 1.15005,0.18219 3.46511,0.51928 5.14458,0.7491 l 3.05359,0.41785 0.42542,-5.18076 c 0.39445,-4.80382 0.53797,-5.22623 1.97245,-5.80561 2.14193,-0.86512 1.30538,-1.52464 -4.61395,-3.63759 -5.08308,-1.81444 -7.0557,-3.44396 -5.45401,-4.5054 1.02159,-0.67701 3.24306,-0.033 8.92827,2.58821 4.23309,1.95171 4.43419,1.98351 6.06644,0.95923 2.32335,-1.45798 2.85551,-1.35503 4.87658,0.94337 1.59079,1.80908 5.29521,3.84619 13.95263,7.67272 3.51043,1.55159 4.77678,2.62998 4.21742,3.59146 -0.69072,1.18726 -4.43838,0.76895 -8.473,-0.94575 -3.19292,-1.35698 -4.02148,-1.50067 -4.78282,-0.82942 -0.65481,0.5773 -0.80448,1.37244 -0.51802,2.75197 0.22156,1.06704 0.42664,2.85004 0.45571,3.96222 0.0599,2.29228 -0.22363,2.16235 8.7899,4.02769 5.56668,1.15202 5.69549,1.15101 7.53835,-0.0589 3.35793,-2.20466 6.3324,-1.26052 7.16773,2.27514 0.22929,0.9705 1.03325,1.74769 2.24124,2.16659 1.03604,0.35928 13.54625,3.49407 27.80048,6.96621 14.25422,3.47214 26.18617,6.59917 26.51543,6.94894 0.83816,0.89039 0.17775,2.3627 -1.62159,3.61514 -1.47644,1.02769 -2.29877,0.86459 -24.20389,-4.80064 -12.47153,-3.22546 -23.08957,-5.6957 -23.59563,-5.4894 -1.10804,0.4517 -1.32813,7.68803 -0.25526,8.39244 0.79743,0.52355 0.13294,15.79695 -0.76562,17.59793 -0.31312,0.62757 -1.19024,1.39183 -1.94917,1.69836 -1.67263,0.67556 -2.65342,4.2468 -6.62622,24.1274 -1.49903,7.50141 -3.1321,14.29813 -3.62903,15.10382 -0.79371,1.28685 -1.30953,1.44187 -4.24421,1.27558 -2.35916,-0.13368 -3.5284,-0.50704 -3.97956,-1.27075 -0.46264,-0.78314 -0.26135,-6.00159 0.72971,-18.91747 1.4926,-19.45219 1.53049,-19.06183 -1.96947,-20.28892 -1.90146,-0.66664 -1.97199,-0.81898 -2.43919,-5.26841 -0.26461,-2.52005 -0.50455,-6.14865 -0.53319,-8.06358 -0.0431,-2.87799 -0.24684,-3.52155 -1.17534,-3.71174 -1.33627,-0.2737 -2.14085,0.87917 -2.15344,3.08557 -0.0137,2.40562 -1.56499,4.29897 -4.21274,5.1417 l -2.36811,0.75369 v 5.78759 c 0,7.23244 -0.70262,8.60867 -4.39508,8.60867 -1.39429,0 -2.85767,-0.34271 -3.25197,-0.76159 -0.43554,-0.46269 -0.71691,-2.71231 -0.71691,-5.73186 0,-3.48534 -0.23137,-5.06459 -0.77442,-5.28596 -0.72436,-0.29529 -54.989,18.76455 -55.76205,19.58579 -0.19541,0.20759 -0.70039,2.46303 -1.12218,5.0121 -0.64774,3.91462 -0.63716,4.74415 0.0681,5.3393 0.45927,0.38755 0.83503,1.15327 0.83503,1.7016 0,1.24627 -5.29295,16.42549 -6.00094,17.20962 -0.30939,0.34265 -0.89056,0.2494 -1.4345,-0.23015 -0.75993,-0.67001 -0.97246,-0.6065 -1.25824,0.37597 -0.18913,0.65017 -0.79098,2.14712 -1.33746,3.32656 -0.78683,1.69817 -0.95908,3.65158 -0.82768,9.38682 l 0.16591,7.24239 -2.15089,2.02295 c -1.92492,1.8104 -2.11282,2.26233 -1.78852,4.30153 l 0.36238,2.27859 -4.36548,1.79983 c -2.40101,0.98992 -4.96117,2.47443 -5.68923,3.29893 -2.42808,2.7497 -3.08895,8.50546 -1.609,14.01339 0.374,1.39193 0.26832,1.42798 -4.18543,1.42798 -3.22921,0 -4.65771,-0.24522 -4.87119,-0.83623 z m -0.19778,-84.88247 c -0.56895,-1.51299 -0.5826,-1.50396 -0.61964,0.40979 -0.0208,1.07628 0.16376,2.17289 0.4102,2.43691 0.7093,0.75992 0.84944,-1.14481 0.20944,-2.8467 z m 33.39578,0.91665 c 0,-0.89615 -0.26,-1.41595 -0.59743,-1.19441 -0.32859,0.21574 -0.59743,1.10624 -0.59743,1.97889 0,0.89616 0.26,1.41596 0.59743,1.19441 0.32858,-0.21573 0.59743,-1.10623 0.59743,-1.97889 z m -35.95014,-1.09186 c 0.28373,-2.63288 -1.15922,-3.904 -6.97683,-6.146 -23.49561,-9.05477 -47.48819,-17.80825 -48.34037,-17.63655 -1.30599,0.26312 -1.7922,5.03928 -0.6165,6.05597 1.23984,1.07215 53.22378,19.81183 54.54471,19.66281 0.82953,-0.0936 1.2542,-0.68558 1.38899,-1.93623 z m 66.22004,-7.47829 c 14.73136,-5.27838 27.12033,-9.88291 27.53107,-10.23228 1.54414,-1.31346 0.7308,-6.19173 -1.03235,-6.19173 -1.09329,0 -46.80272,16.99597 -51.19205,19.03455 -1.36877,0.63571 -2.9369,1.88256 -3.48474,2.77078 -1.08776,1.76361 -0.74611,4.21573 0.58738,4.21573 0.44353,0 12.85933,-4.31867 27.59069,-9.59705 z m -154.85932,-1.41075 c 0.80914,-0.62853 0.99355,-1.29711 0.70023,-2.53864 -0.33556,-1.4203 -0.72531,-1.6854 -2.4778,-1.6854 -1.80366,0 -2.07961,0.20452 -2.07961,1.54132 0,1.45866 1.36188,3.53596 2.31819,3.53596 0.24231,0 0.93486,-0.38396 1.53899,-0.85324 z m 217.82461,-0.4551 c 1.72779,-1.83547 1.27632,-3.40758 -1.04743,-3.64734 -2.45949,-0.25376 -3.56456,1.53814 -2.21286,3.58824 1.12283,1.70296 1.70297,1.71348 3.26029,0.0591 z M 219.45971,255.60717 c 0.24952,-1.84912 -1.08322,-3.40975 -3.30839,-3.87414 -1.89964,-0.39645 -1.94163,-0.35613 -1.94163,1.8639 0,2.54725 1.18757,3.68647 3.58455,3.43861 0.97756,-0.10109 1.55296,-0.59457 1.66547,-1.42837 z m 165.30487,0.55948 c 1.25678,-1.3351 0.95542,-4.28189 -0.4672,-4.56862 -1.85957,-0.37479 -4.00325,1.61242 -4.00325,3.71104 0,1.66594 0.20689,1.88936 1.7496,1.88936 0.96229,0 2.18667,-0.4643 2.72085,-1.03178 z M 313.8569,364.11386 c -0.20731,-0.22024 -0.0935,-1.26425 0.25299,-2.32004 0.35647,-1.08628 0.48518,-3.95278 0.2965,-6.60309 -0.34882,-4.89963 -0.0356,-5.68847 1.98824,-5.00612 1.12915,0.38071 1.19804,0.85629 1.04014,7.18089 -0.16788,6.72458 -0.17996,6.77452 -1.68501,6.96097 -0.83376,0.10329 -1.68554,0.008 -1.89286,-0.21261 z m -14.41443,-14.67815 c -1.40886,-1.49666 2.46316,-4.01477 6.1734,-4.01477 1.62856,0 3.45387,0.49579 4.63005,1.25762 3.65682,2.36856 2.33556,3.18026 -5.17677,3.18026 -2.87562,0 -5.40763,-0.1904 -5.62668,-0.42311 z"
       id="path862"
       inkscape:connector-curvature="0" />
    <path
       style="fill:#000000;stroke-width:0.61576176"
       d="m 299.94036,369.90306 c -0.98575,-0.46742 -2.5988,-1.76084 -3.58455,-2.87429 -1.5813,-1.78614 -1.78985,-2.4656 -1.7716,-5.77212 0.0239,-4.33643 1.25102,-6.62091 4.50248,-8.38221 4.27674,-2.31668 9.39403,-0.82462 11.9485,3.48384 0.96912,1.63457 1.1651,2.76647 0.93426,5.39608 -0.36289,4.13395 -2.0012,6.68009 -5.16307,8.02407 -2.88912,1.22805 -4.47819,1.25689 -6.86602,0.12463 z m 4.95864,-6.8433 c 1.20596,-1.28112 0.85776,-3.66659 -0.61996,-4.24731 -1.73431,-0.68153 -3.44254,0.44687 -3.44254,2.27405 0,2.18674 2.64992,3.47387 4.0625,1.97326 z m -21.12999,0.56001 c -0.16614,-0.45993 -0.22491,-3.78571 -0.13061,-7.39065 0.16135,-6.16772 0.26041,-6.62485 1.67903,-7.74824 0.82918,-0.65662 2.57664,-1.34769 3.88327,-1.53572 4.76839,-0.68619 4.97432,-0.81293 6.23318,-3.83617 0.67135,-1.61227 1.22064,-3.05248 1.22064,-3.20043 0,-0.14796 -1.00816,-1.25062 -2.24035,-2.45036 l -2.24035,-2.18134 -0.009,-7.7822 c -0.008,-6.34755 -0.20034,-8.07148 -1.04549,-9.35141 -0.5699,-0.86305 -1.03618,-2.07926 -1.03618,-2.70267 0,-0.97828 -0.16609,-1.02413 -1.21308,-0.33479 -1.58229,1.0418 -1.67122,0.87855 -5.03959,-9.25134 -3.02795,-9.10616 -2.61644,-8.16098 -2.16639,-9.15666 0.85568,-1.89314 2.28093,-1.90199 2.99991,-3.27634 0.67422,-0.86618 0.86104,-1.00929 1.17458,-1.50436 0.31354,-0.49508 0.73466,-1.46751 1.55612,-2.61163 1.35823,-1.89172 1.49356,-2.64356 1.49356,-8.29739 0,-5.13647 -0.22861,-6.70346 -1.31516,-9.01465 -1.29536,-2.75537 -1.29857,-2.83023 -0.21309,-4.97148 0.96051,-1.89472 1.01704,-2.6238 0.44007,-5.67583 -0.36411,-1.92601 -1.34359,-5.31168 -2.17662,-7.52371 -0.83304,-2.21206 -1.51462,-4.77536 -1.51462,-5.69626 0,-2.15447 3.2119,-5.60248 7.33844,-7.8779 2.69566,-1.4864 3.84262,-1.72209 8.49335,-1.74525 4.69991,-0.0234 5.80259,0.19533 8.75859,1.73744 3.42311,1.78578 7.67063,6.05486 7.67063,7.70956 0,0.49621 -0.82958,3.10311 -1.8435,5.79309 -2.30428,6.1133 -2.83615,10.74687 -1.53938,13.41082 0.87827,1.80423 0.8626,2.10703 -0.22649,4.37635 -0.95606,1.99214 -1.17004,3.74138 -1.17004,9.56493 0,4.51479 0.24177,7.28568 0.65964,7.56003 0.3628,0.2382 1.14507,1.58492 1.73838,2.99272 l 1.07876,2.55965 2.85728,2.09266 c 0.45927,0.38755 0.83503,1.15327 0.83503,1.7016 0,1.24627 -5.29295,16.42549 -6.00094,17.20962 -0.30939,0.34265 -0.89056,0.2494 -1.4345,-0.23015 -0.75993,-0.67001 -0.97246,-0.6065 -1.25824,0.37597 -0.18913,0.65017 -0.79098,2.14712 -1.33745,3.32656 -0.78684,1.69817 -0.95909,3.65158 -0.82769,9.38682 l 0.16591,7.24239 -2.15089,2.02295 c -1.92492,1.8104 -2.11282,2.26233 -1.78852,4.30153 l 0.36238,2.27859 -4.36548,1.79983 c -2.40101,0.98992 -4.96117,2.47443 -5.68923,3.29893 -2.42808,2.7497 -3.08895,8.50546 -1.609,14.01339 0.374,1.39193 0.26832,1.42798 -4.18543,1.42798 -3.22921,0 -4.65771,-0.24522 -4.87119,-0.83623 z m 30.08793,0.49409 c -0.2073,-0.22023 -0.0935,-1.26425 0.25299,-2.32004 0.35647,-1.08627 0.48518,-3.95278 0.2965,-6.60308 -0.34881,-4.89964 -0.0356,-5.68847 1.98824,-5.00613 1.12915,0.38072 1.19804,0.8563 1.04014,7.18089 -0.16788,6.72458 -0.17996,6.77453 -1.68501,6.96097 -0.83376,0.10329 -1.68554,0.008 -1.89286,-0.21261 z m -14.41443,-14.67815 c -1.40886,-1.49666 2.46316,-4.01476 6.1734,-4.01476 1.62856,0 3.45387,0.49579 4.63005,1.25762 3.65682,2.36855 2.33556,3.18026 -5.17676,3.18026 -2.87563,0 -5.40764,-0.1904 -5.62669,-0.42312 z"
       id="path862-8"
       inkscape:connector-curvature="0"
       sodipodi:nodetypes="ccccccccccscccsscsccccsccsczcsccccscccscscsccccsccccccccccccsccccscscccscsc" />
  </g>
</svg>
