<?xml version="1.0" encoding="UTF-8" standalone="no"?>
<svg
   xmlns:dc="http://purl.org/dc/elements/1.1/"
   xmlns:cc="http://creativecommons.org/ns#"
   xmlns:rdf="http://www.w3.org/1999/02/22-rdf-syntax-ns#"
   xmlns:svg="http://www.w3.org/2000/svg"
   xmlns="http://www.w3.org/2000/svg"
   xmlns:sodipodi="http://sodipodi.sourceforge.net/DTD/sodipodi-0.dtd"
   xmlns:inkscape="http://www.inkscape.org/namespaces/inkscape"
   width="210mm"
   height="120mm"
   viewBox="0 0 793.7008 453.54331"
   version="1.1"
   id="svg10"
   sodipodi:docname="tello.svg"
   inkscape:version="0.92.3 (2405546, 2018-03-11)"
   inkscape:export-filename="C:\Users\SAM\Documents\web app\django_project\website\ecommerce\static\images\drones\loisir_icon.png"
   inkscape:export-xdpi="299.96188"
   inkscape:export-ydpi="299.96188">
  <metadata
     id="metadata14">
    <rdf:RDF>
      <cc:Work
         rdf:about="">
        <dc:format>image/svg+xml</dc:format>
        <dc:type
           rdf:resource="http://purl.org/dc/dcmitype/StillImage" />
        <dc:title>tello</dc:title>
      </cc:Work>
    </rdf:RDF>
  </metadata>
  <sodipodi:namedview
     pagecolor="#ffffff"
     bordercolor="#666666"
     borderopacity="1"
     objecttolerance="10"
     gridtolerance="10"
     guidetolerance="10"
     inkscape:pageopacity="0"
     inkscape:pageshadow="2"
     inkscape:window-width="1280"
     inkscape:window-height="961"
     id="namedview12"
     showgrid="false"
     units="mm"
     height="120mm"
     inkscape:zoom="0.9953373"
     inkscape:cx="541.7523"
     inkscape:cy="226.77165"
     inkscape:window-x="-8"
     inkscape:window-y="-8"
     inkscape:window-maximized="1"
     inkscape:current-layer="g832" />
  <!-- Generator: Sketch 51.3 (57544) - http://www.bohemiancoding.com/sketch -->
  <title
     id="title2">tello</title>
  <desc
     id="desc4">Created with Sketch.</desc>
  <path
     style="fill:none;stroke:#000000;stroke-width:0.46062616;stroke-linecap:butt;stroke-linejoin:miter;stroke-miterlimit:4;stroke-dasharray:none;stroke-opacity:1"
     d="m 634.96591,226.49842 c 0,0 1.1808,-1.39804 3.42284,-1.66651 1.30061,-0.15575 3.85475,-0.7567 3.85475,-0.7567"
     id="path860"
     inkscape:connector-curvature="0"
     sodipodi:nodetypes="csc" />
  <defs
     id="defs6" />
  <g
     id="g832"
     transform="matrix(1.5472292,0,0,1.5237018,139.70458,472.13316)">
    <path
       style="fill:#000000;stroke-width:0.18536295"
       d="m 289.03334,-44.76494 c -2.49226,-0.63831 -2.92572,-1.39109 -3.47526,-6.03543 -0.19643,-1.66 -0.58251,-4.67693 -0.85796,-6.70428 -0.46889,-3.45097 -0.50083,-4.0512 -0.50083,-9.41007 v -5.72399 l -0.76843,-0.86758 -0.76843,-0.86758 v -2.54257 c 0,-2.30783 0.0305,-2.5618 0.3303,-2.75086 0.18166,-0.11456 0.49577,-0.20829 0.698,-0.20829 0.22094,0 0.65624,-0.37552 1.09059,-0.94082 0.75812,-0.9867 1.29635,-1.09789 1.29635,-0.26779 0,0.23976 0.16155,0.49196 0.38421,0.59981 0.21132,0.10235 0.8435,0.70003 1.40484,1.32817 0.75606,0.84604 1.18189,1.16757 1.64279,1.24041 0.34219,0.0541 0.6682,0.0106 0.72446,-0.0967 0.0563,-0.10727 -0.006,-5.02972 -0.13739,-10.93878 -0.23403,-10.49014 -0.23203,-10.75149 0.0846,-11.07212 0.31276,-0.31667 0.30551,-0.33281 -0.20334,-0.45273 -0.29022,-0.0684 -0.94441,-0.12435 -1.45376,-0.12435 -0.57663,0 -1.19283,-0.15186 -1.63297,-0.40243 -0.38877,-0.22133 -0.75007,-0.40242 -0.80287,-0.40242 -0.0528,0 -0.096,1.71282 -0.096,3.80627 0,2.09345 -0.0576,3.87418 -0.12807,3.95718 -0.28548,0.33638 -0.38704,-0.26768 -0.44432,-2.64268 l -0.0601,-2.49202 -1.56214,-1.1873 c -0.85918,-0.65302 -1.74843,-1.42558 -1.97612,-1.7168 -0.22769,-0.29123 -0.51689,-0.5295 -0.64268,-0.5295 -0.12578,0 -0.36397,-0.0995 -0.52931,-0.22122 -0.22144,-0.16295 -2.6158,-0.0849 -9.09075,0.29647 -4.83457,0.28472 -13.51596,0.7583 -19.29198,1.05239 -7.09185,0.36108 -10.54258,0.60783 -10.6273,0.7599 -0.069,0.12385 -0.12664,0.48859 -0.12807,0.81053 -0.002,0.43026 -0.20125,0.8034 -0.75241,1.40848 -0.74708,0.82019 -0.75022,0.82948 -0.86851,2.57494 -0.0653,0.96349 -0.0765,1.83236 -0.0248,1.93082 0.0517,0.0985 1.07644,-0.12461 2.2773,-0.49572 1.20087,-0.37111 2.91341,-0.85208 3.80564,-1.06882 0.89223,-0.21674 2.16014,-0.54267 2.81757,-0.72429 0.65743,-0.18161 1.54112,-0.39855 1.96376,-0.48208 0.42263,-0.0835 1.03738,-0.28905 1.36609,-0.45671 0.32872,-0.16766 0.98188,-0.37019 1.45148,-0.45007 0.46959,-0.0799 1.00749,-0.2456 1.19533,-0.36827 0.44149,-0.28831 1.99232,-0.55064 3.92752,-0.66434 0.84527,-0.0497 1.69054,-0.18148 1.87838,-0.29292 0.18887,-0.11205 1.21928,-0.17697 2.30529,-0.14524 1.91069,0.0558 1.96528,0.0701 2.02017,0.52669 0.11455,0.95304 -0.49134,1.31289 -2.64769,1.57251 -0.56503,0.068 -0.9902,0.2451 -1.17911,0.49107 -0.18475,0.24055 -0.52546,0.38634 -0.90934,0.3891 -0.33764,0.002 -0.94886,0.18352 -1.35827,0.40243 -0.47469,0.2538 -1.12431,0.40059 -1.793,0.40513 -0.58498,0.004 -1.23737,0.13428 -1.47552,0.29469 -0.2348,0.15816 -0.6196,0.29077 -0.85511,0.29469 -0.23552,0.004 -1.26685,0.32404 -2.29186,0.71137 -1.02501,0.38734 -1.96413,0.70425 -2.08694,0.70425 -0.74623,0 -8.59839,3.10835 -10.64694,4.21469 -3.87675,2.09368 -3.88968,2.09792 -5.95378,1.95492 -2.18847,-0.15162 -4.48575,-0.8738 -5.10655,-1.6053 -0.37386,-0.44053 -0.5381,-1.21496 -1.4223,-6.70634 -0.5498,-3.41456 -1.00386,-6.75157 -1.00902,-7.41557 -0.006,-0.7344 -0.10759,-1.36026 -0.2601,-1.59786 -0.53401,-0.83192 -0.26028,-2.02689 0.69409,-3.03003 l 0.57429,-0.60364 -0.20118,-3.01819 c -0.31487,-4.72387 -0.2194,-7.21234 0.30492,-7.9479 0.11834,-0.166 0.26926,-0.51082 0.3354,-0.76627 0.16567,-0.63993 0.82519,-0.52625 0.94362,0.16264 0.14894,0.86637 0.3993,1.1613 1.36676,1.61006 0.51632,0.2395 1.0392,0.53367 1.16196,0.65371 0.16613,0.16246 0.309,0.11715 0.55883,-0.17723 0.36102,-0.4254 0.36158,-0.37166 -0.12066,-11.41416 l -0.11298,-2.58699 -0.56857,0.10872 c -1.49421,0.28571 -4.19899,2.05639 -7.15712,4.6854 l -1.4963,1.32982 -1.98096,-0.13753 c -3.1081,-0.21579 -3.80806,-0.56914 -3.24752,-1.63942 0.1331,-0.25414 0.93167,-1.53021 1.77459,-2.83572 0.84293,-1.30552 2.25386,-3.8224 3.13539,-5.59307 2.6197,-5.26198 3.71558,-6.81175 5.97362,-8.44768 0.83653,-0.60606 1.05714,-0.86376 0.98188,-1.14701 -0.0534,-0.20093 -0.14086,-0.53027 -0.19439,-0.73187 -0.0649,-0.24446 0.14836,-0.72397 0.64035,-1.43969 0.40573,-0.59024 0.99033,-1.47007 1.29912,-1.95518 0.30878,-0.48512 0.76715,-0.99172 1.0186,-1.12577 0.85292,-0.45472 6.68585,-6.10146 9.2474,-8.95222 2.73861,-3.04781 2.54711,-2.92251 4.8479,-3.17191 1.19627,-0.12967 2.00272,0.18072 1.99546,0.76803 -0.002,0.13578 -0.58177,1.10706 -1.2891,2.1584 -0.70733,1.05133 -1.87043,2.99806 -2.58466,4.32607 -2.21484,4.11816 -3.30789,5.52309 -6.41837,8.24971 -0.63651,0.55796 -1.19516,1.21525 -1.25427,1.47571 -0.0586,0.2583 -0.039,1.29152 0.0436,2.29605 l 0.15019,1.82641 0.93823,0.37448 c 1.26274,0.504 1.66911,0.99059 1.43921,1.7233 -0.16885,0.53814 -0.12868,1.92951 0.41987,14.54082 0.0939,2.15953 0.22198,4.08363 0.28455,4.27577 0.0626,0.19214 0.2524,0.34935 0.42185,0.34935 0.16944,0 0.50205,0.27164 0.73913,0.60364 0.23708,0.332 0.54103,0.60363 0.67543,0.60363 0.13441,0 2.77124,-1.13984 5.85962,-2.53297 3.08838,-1.39314 7.68999,-3.46706 10.22581,-4.60873 12.12951,-5.46089 15.06759,-6.79608 15.56879,-7.07509 0.53814,-0.29957 0.54987,-0.29431 1.75628,0.78874 0.66798,0.59968 2.56093,1.93062 4.20654,2.95765 l 2.99204,1.86734 1.15659,-0.62818 c 1.79481,-0.97481 2.8155,-0.90216 4.84189,0.34462 2.03937,1.25476 7.74118,5.22074 10.80222,7.51364 l 2.39066,1.79075 v 1.85204 1.85204 l 2.21098,1.49085 2.21098,1.49085 2.39959,0.16961 c 3.29706,0.23305 6.37794,0.6147 14.35292,1.77803 8.39795,1.22502 12.06012,1.66093 22.66226,2.69751 2.81541,0.27526 3.20815,0.4288 3.20815,1.25415 0,0.57517 -0.0173,0.57422 1.33861,0.0734 0.59537,-0.21991 1.33422,-0.39983 1.6419,-0.39983 0.69846,0 1.42212,0.65086 1.74918,1.57323 l 0.2485,0.70081 0.45655,-0.53789 c 0.44945,-0.52954 0.45646,-0.57919 0.45164,-3.19945 -0.006,-3.10622 -0.26349,-4.13269 -1.50396,-5.98918 -1.25063,-1.87169 -5.35503,-5.36154 -11.93863,-10.15108 -2.74209,-1.99485 -3.33967,-2.5177 -2.87756,-2.5177 0.0844,0 5.6363,2.13431 12.33754,4.7429 6.70124,2.6086 15.33463,5.9643 19.18531,7.4571 3.85068,1.49281 8.2536,3.20123 9.78426,3.7965 l 2.78302,1.08231 0.16613,-0.54121 c 0.33495,-1.09108 0.59395,-1.5056 1.12826,-1.80584 0.50267,-0.28245 0.5551,-0.40484 0.65791,-1.5362 0.0615,-0.67611 0.0658,-1.90706 0.01,-2.73544 -0.15967,-2.35682 -0.15745,-2.59546 0.0431,-4.62496 0.10389,-1.05133 0.23734,-3.81298 0.29654,-6.13698 0.14375,-5.64147 0.51254,-7.46868 1.83948,-9.11365 0.63334,-0.78511 0.51324,-0.95302 -0.81938,-1.14556 -1.52484,-0.22031 -1.79068,-0.32589 -2.1406,-0.85007 -0.83803,-1.25535 -0.0409,-3.27559 3.16348,-8.01804 1.88688,-2.7925 2.50449,-3.88122 3.4175,-6.02426 0.61292,-1.43867 1.29911,-2.81065 1.52486,-3.04884 0.33102,-0.34929 0.72179,-0.46059 2.01966,-0.57524 1.87102,-0.16529 2.65257,-0.0181 2.82526,0.53193 0.0675,0.21515 0.0243,1.27053 -0.096,2.3453 -0.14626,1.30603 -0.18343,2.98849 -0.11209,5.07292 0.15077,4.40519 -0.0507,5.28619 -1.90258,8.32199 -0.57212,0.93785 -0.59645,1.04914 -0.59645,2.72796 v 1.75022 l 1.78089,2.34234 c 2.28911,3.0108 2.65892,3.6583 2.65892,4.65566 0,1.56582 -1.04358,2.92927 -3.67138,4.79673 -0.56352,0.40046 -1.23592,0.98881 -1.49424,1.30743 l -0.46966,0.57932 -0.25384,5.79723 c -0.13963,3.18848 -0.21189,5.87722 -0.16062,5.97498 0.13827,0.26363 0.55592,0.21405 1.68008,-0.19941 1.10481,-0.40634 1.46671,-0.81632 1.46671,-1.66155 0,-1.19283 0.86214,-0.94986 1.38742,0.39101 0.32358,0.82597 0.37185,1.31931 0.38759,3.96165 0.01,1.66 -0.0462,4.10473 -0.12453,5.43274 l -0.14252,2.41455 0.53382,0.34756 c 0.8888,0.57866 1.32941,2.4321 0.78122,3.28611 -0.14744,0.22968 -0.25295,0.84425 -0.25615,1.49181 -0.003,0.60568 -0.35544,3.32205 -0.78321,6.03638 -0.4278,2.71433 -0.88154,5.60356 -1.00832,6.42051 -0.29827,1.92188 -0.63257,2.31901 -2.50041,2.97041 -1.81255,0.63211 -5.54187,0.90132 -6.16828,0.44527 -0.21372,-0.1556 -0.83866,-0.45718 -1.38875,-0.67016 -0.55009,-0.21299 -1.21401,-0.62263 -1.47538,-0.91033 -0.44702,-0.49204 -0.4817,-0.65387 -0.58437,-2.72667 -0.06,-1.21197 -0.17711,-3.12571 -0.26018,-4.25275 l -0.15104,-2.04918 -0.76257,-0.86841 c -0.7593,-0.86466 -0.76312,-0.87602 -0.88394,-2.62973 -0.13908,-2.01887 0.0827,-1.81908 -2.39587,-2.15881 -6.86022,-0.94035 -22.10797,-3.05478 -23.1347,-3.20813 -0.70246,-0.10492 -1.3172,-0.1438 -1.3661,-0.0864 -0.0489,0.0574 -0.17659,1.11562 -0.28376,2.35163 -0.10718,1.236 -0.2544,2.51891 -0.32716,2.85092 -0.11412,0.52073 -0.0973,0.56968 0.12257,0.35643 0.319,-0.30941 2.41046,-0.12253 3.08047,0.27526 0.25362,0.15057 0.73635,0.27376 1.07275,0.27376 0.33639,0 0.87262,0.1285 1.19161,0.28555 0.31899,0.15705 1.02731,0.34902 1.57406,0.42662 0.54674,0.0776 1.561,0.35655 2.2539,0.61991 0.6929,0.26336 1.40062,0.47884 1.57271,0.47884 0.96475,0 5.84912,1.64772 7.15704,2.41439 0.51655,0.3028 1.74604,0.84831 2.73219,1.21226 2.55288,0.94215 3.07371,1.27761 3.07371,1.9797 0,0.76529 -0.96617,1.43533 -1.57026,1.08898 -0.21642,-0.12409 -1.33134,-0.28016 -2.4776,-0.34683 -1.14626,-0.0667 -2.52943,-0.23035 -3.07371,-0.36375 -1.92514,-0.47182 -20.03317,-0.19158 -21.48103,0.33245 -0.37568,0.13597 -1.44511,0.24145 -2.37653,0.23439 -2.06068,-0.0156 -2.28772,-0.28692 -0.86185,-1.02996 0.53655,-0.2796 0.92584,-0.56694 0.86509,-0.63852 -0.0608,-0.0716 -0.70426,0.20115 -1.43001,0.60609 -1.69383,0.94509 -3.03654,1.53775 -5.63129,2.48559 -1.15051,0.42027 -2.09183,0.84571 -2.09183,0.94541 0,0.0997 0.21132,0.11534 0.46959,0.0348 1.39823,-0.43625 2.70498,-0.0197 1.67425,0.53364 -0.25683,0.13788 -0.48247,0.45759 -0.53457,0.75743 -0.0496,0.28536 -0.21352,0.81311 -0.36431,1.17278 -0.23013,0.54889 -0.36876,0.65394 -0.86299,0.65394 -0.37242,0 -0.76784,0.17751 -1.07596,0.483 -0.29648,0.29396 -0.82298,0.53743 -1.3452,0.62206 -0.62951,0.10202 -0.93903,0.27004 -1.16208,0.63085 -0.24583,0.39764 -0.5324,0.52755 -1.49702,0.67862 -0.65615,0.10276 -1.61563,0.28293 -2.13218,0.40037 -0.51656,0.11744 -1.51551,0.28222 -2.21991,0.36617 -0.70439,0.0839 -1.44856,0.26273 -1.6537,0.3973 -0.20514,0.13457 -0.71883,0.24467 -1.14152,0.24467 -0.4227,0 -0.96954,0.09 -1.21521,0.20011 -0.24566,0.11006 -2.07568,0.2282 -4.06671,0.26253 l -3.62004,0.0624 -0.87783,-1.08951 -0.87782,-1.08951 -0.0664,-2.11317 c -0.0593,-1.88908 -0.1066,-2.15156 -0.44558,-2.47499 -0.54793,-0.52276 -0.46722,-0.80033 0.23266,-0.80033 0.95811,0 0.61983,-0.45386 -0.53858,-0.72259 -0.55688,-0.12919 -1.24847,-0.29917 -1.53686,-0.37772 -0.5137,-0.13993 -0.64525,0.0137 -6.47023,7.55653 l -5.94587,7.69937 0.10188,1.97053 c 0.0728,1.40813 0.008,2.80266 -0.22876,4.88617 -0.36045,3.17841 -0.84822,8.88001 -0.84916,9.92585 -5.2e-4,0.60258 0.0267,0.63556 0.33667,0.40747 0.26889,-0.19787 0.38139,-0.19602 0.55497,0.009 0.17655,0.20868 0.13699,0.33072 -0.20919,0.64534 -0.23479,0.21339 -0.52295,0.34716 -0.64035,0.29727 -0.1174,-0.0499 -0.2159,0.0649 -0.21889,0.25508 -0.0143,0.91136 -1.266,1.90452 -3.47475,2.75708 -1.65384,0.63837 -2.01149,0.70596 -3.65891,0.69153 -1.00425,-0.009 -2.30165,-0.13785 -2.88313,-0.28677 z m 14.14282,-34.15489 c 3.11034,-4.10091 4.15651,-5.55902 4.0608,-5.65977 -0.0386,-0.0407 -0.3138,-0.21983 -0.61153,-0.39817 l -0.54131,-0.32425 -0.66522,0.9526 c -3.23487,4.63247 -5.64084,8.90051 -5.01737,8.90051 0.0781,0 1.32673,-1.56192 2.77463,-3.47092 z m -8.05748,-0.0352 c 0.30282,-0.19761 0.52197,-0.21642 0.7976,-0.0684 0.3015,0.16186 0.48882,0.11279 0.90621,-0.23742 0.28939,-0.2428 0.59466,-0.59361 0.6784,-0.77958 0.0888,-0.19717 0.0924,-3.86123 0.009,-8.78906 -0.14815,-8.71886 -0.29227,-12.17337 -0.50784,-12.17337 -0.0684,0 -0.42188,0.14685 -0.78555,0.32632 -0.38435,0.18969 -1.09021,0.3182 -1.68578,0.30693 -0.89296,-0.0169 -0.98579,0.0155 -0.7227,0.25182 0.28454,0.25563 0.29519,0.87887 0.18564,10.86037 l -0.11623,10.58916 0.41202,-0.007 c 0.22662,-0.004 0.59992,-0.12974 0.82957,-0.27961 z m 21.01306,-1.32296 c 0,-0.11066 -0.0814,-0.20121 -0.18084,-0.20121 -0.0995,0 -0.13335,0.0906 -0.0753,0.20121 0.058,0.11067 0.13942,0.20122 0.18084,0.20122 0.0414,0 0.0753,-0.0906 0.0753,-0.20122 z m -14.87435,-3.93433 c 0.94913,-1.49988 1.7257,-2.76159 1.7257,-2.8038 0,-0.16309 -3.23164,-1.99621 -3.32507,-1.88612 -0.0544,0.0641 -0.36446,0.87629 -0.68906,1.80492 -0.49712,1.42216 -0.59069,1.93432 -0.59332,3.24781 -0.003,1.29419 0.055,1.62784 0.3384,1.96182 0.18784,0.22134 0.44865,0.40243 0.57959,0.40243 0.13094,0 1.01463,-1.22718 1.96376,-2.72706 z m 51.2684,-5.67357 c 0.2124,-0.31913 0.20636,-0.32625 -0.0645,-0.076 -0.16436,0.15189 -0.29883,0.31034 -0.29883,0.35212 0,0.16561 0.14023,0.059 0.36331,-0.27615 z m -26.24026,-5.80975 c 0.11362,-0.0514 0.33162,-0.40235 0.48443,-0.77995 0.38756,-0.95764 1.4127,-2.24668 2.24002,-2.81663 0.42347,-0.29175 1.87089,-0.79277 3.68566,-1.27578 5.36727,-1.42854 7.68428,-2.11707 7.68428,-2.28346 0,-0.1975 0.30606,-0.19941 -5.46701,0.0342 -2.58421,0.10456 -5.4274,0.28436 -6.31818,0.39958 -3.12617,0.40433 -10.6712,1.65269 -10.786,1.78459 -0.0638,0.0733 -0.006,0.62838 0.12807,1.2335 0.13425,0.60512 0.24408,1.58133 0.24408,2.16935 0,0.72644 0.076,1.10349 0.23705,1.17632 0.99075,0.44798 7.05817,0.72433 7.8676,0.35833 z m 12.04525,0.12549 c 0,-0.11066 -0.1729,-0.19982 -0.38422,-0.19813 -0.31069,0.003 -0.3352,0.0404 -0.12807,0.19813 0.33107,0.25211 0.51229,0.25211 0.51229,0 z m -41.54421,-6.06628 c 1.002,-0.43834 1.29828,-0.7107 1.12744,-1.03641 -0.0975,-0.18583 -2.35733,-1.95187 -2.49765,-1.95187 -0.0896,0 -0.30383,1.15297 -0.29914,1.6097 0.009,0.86726 0.24338,1.81091 0.45,1.81091 0.12708,0 0.67579,-0.19455 1.21935,-0.43233 z m -8.13391,-0.88736 c 0.0217,-1.62562 -0.0413,-2.12608 -0.2812,-2.23457 -0.47238,-0.21359 -2.29379,0.87258 -2.29379,1.36787 0,0.27879 2.28434,1.98973 2.429,1.81928 0.0745,-0.0877 0.14016,-0.51641 0.14599,-0.95258 z m 89.18812,-0.0481 c 0.0463,-0.0883 0.0228,-0.2775 -0.0522,-0.42048 -0.17077,-0.3256 -16.00101,-5.01122 -16.52868,-4.89237 -0.41956,0.0945 -1.41318,1.18418 -1.41318,1.54979 0,0.13978 3.32655,0.92102 8.75154,2.0553 9.78863,2.04665 9.12869,1.92471 9.24248,1.70776 z m -114.58222,-5.67489 c 4.68363,-0.33189 8.66478,-0.60343 8.84701,-0.60343 0.18222,0 0.29088,-0.0771 0.24147,-0.17129 -0.0494,-0.0942 -0.99527,-0.23057 -2.10191,-0.30303 -1.10664,-0.0725 -3.20313,-0.23235 -4.65888,-0.3553 l -2.6468,-0.22356 -4.43981,0.93765 c -2.44189,0.5157 -4.67033,1.01614 -4.95209,1.11208 -0.46367,0.15788 -0.43127,0.17614 0.34152,0.19237 0.4696,0.01 4.68587,-0.25361 9.36949,-0.58549 z m 124.42237,-3.82283 c 0.0712,-3.10223 0.0439,-3.76479 -0.16386,-3.97666 -0.13707,-0.13983 -0.32918,-0.22295 -0.42691,-0.18472 -0.0991,0.0388 -0.26621,1.35206 -0.37798,2.97059 -0.11017,1.59561 -0.23563,3.22562 -0.27878,3.62226 -0.10562,0.97071 0.13476,1.43095 0.70663,1.35303 l 0.45552,-0.0621 z m -114.58116,0.59732 c 0,-0.33754 -0.47056,-0.45148 -1.15393,-0.27939 l -0.63907,0.16093 0.68305,0.13444 c 1.05102,0.20687 1.10995,0.20602 1.10995,-0.016 z m -36.68825,-5.72479 c 0.10229,-0.12053 -0.30667,-3.7218 -0.44056,-3.87957 -0.0535,-0.063 -0.0973,0.80595 -0.0973,1.93106 0,1.57058 0.0529,2.04566 0.22769,2.04566 0.12522,0 0.26478,-0.0437 0.31013,-0.0971 z m 25.47168,-2.92987 c 2.33055,-0.63653 4.28394,-1.2122 4.34087,-1.27928 0.2166,-0.25523 -0.70298,-1.12644 -1.18898,-1.12644 -0.46306,0 -7.21101,2.92347 -8.14969,3.53075 -0.42847,0.2772 -0.42606,0.27952 0.16276,0.15683 0.32872,-0.0685 2.50449,-0.64533 4.83504,-1.28186 z m -25.92159,-10.39514 c -0.07,-0.77023 -0.18294,-1.2209 -0.28698,-1.14513 -0.17145,0.12486 -0.0601,2.17984 0.16239,2.99757 0.10001,0.3675 0.11517,0.35969 0.17477,-0.09 0.0359,-0.27082 0.0133,-1.06393 -0.0502,-1.76247 z m 107.23588,48.23195 c 0.058,-0.11067 0.13942,-0.20122 0.18084,-0.20122 0.0414,0 0.0753,0.0906 0.0753,0.20122 0,0.11066 -0.0814,0.20121 -0.18084,0.20121 -0.0995,0 -0.13335,-0.0906 -0.0753,-0.20121 z m -13.74633,-48.82293 c -3.04086,-1.99093 -5.08804,-3.21536 -9.81175,-5.86846 -2.15627,-1.21108 -3.95319,-2.31762 -3.99318,-2.45897 -0.0559,-0.19771 0.13943,-0.22674 0.84676,-0.12583 0.50571,0.0721 1.32289,0.1892 1.81597,0.26012 l 0.8965,0.12895 v -1.44453 c 0,-1.04745 0.0939,-1.66137 0.34152,-2.23335 0.18784,-0.43385 0.34152,-0.91856 0.34152,-1.07713 0,-0.3315 0.51345,-0.62346 0.68282,-0.38826 0.0624,0.0866 0.20066,0.52014 0.30729,0.96336 0.23795,0.98913 1.48411,2.09951 1.85964,1.65702 0.12091,-0.14247 0.40765,-1.88853 0.6474,-3.94228 0.47743,-4.08958 0.51855,-5.00027 0.16945,-3.75212 l -0.22512,0.80485 -0.0215,-1.10667 c -0.0119,-0.60867 -0.0141,-3.26803 -0.005,-5.90969 l 0.0166,-4.80302 -0.44188,0.13068 c -0.557,0.16473 -1.96507,-0.5349 -1.96507,-0.97638 0,-0.40784 0.13266,-0.39523 0.93919,0.0893 0.36844,0.22134 0.76327,0.40243 0.87741,0.40243 0.30293,0 0.73126,-1.11021 0.55487,-1.4382 -0.0805,-0.14966 -0.14869,-1.04175 -0.15156,-1.98242 -0.003,-0.94067 -0.0731,-1.83666 -0.15612,-1.99109 -0.12044,-0.22414 -0.92105,-0.29044 -3.9676,-0.32858 -2.09919,-0.0263 -5.08462,-0.192 -6.6343,-0.36825 -1.54968,-0.17624 -4.93076,-0.45803 -7.51352,-0.62619 -2.58276,-0.16816 -5.15698,-0.35304 -5.72049,-0.41084 -0.56352,-0.0578 -2.59985,-0.19393 -4.52519,-0.30251 -7.27126,-0.41006 -13.41776,-0.81404 -13.77018,-0.90503 -0.49209,-0.12707 -0.62291,-0.61486 -0.27488,-1.02496 0.2441,-0.28763 0.52753,-0.31619 1.9992,-0.20144 11.40828,0.88955 15.71734,1.16401 25.87756,1.64823 11.03415,0.52586 14.07262,0.62208 14.36658,0.4549 0.16818,-0.0956 0.32712,-0.53875 0.40074,-1.11721 0.22206,-1.74484 0.8819,-2.67817 2.18591,-3.09191 1.24416,-0.39477 2.86292,0.74265 3.12205,2.19371 0.0528,0.2958 0.128,0.72696 0.16706,0.95813 0.0704,0.41678 0.11075,0.41955 4.8133,0.33043 5.20369,-0.0986 8.21503,0.11688 16.26871,1.16425 7.83226,1.01857 13.74953,1.64177 20.19173,2.12658 2.15826,0.16242 2.44384,0.32887 2.28425,1.33134 -0.22904,1.43861 -0.11168,1.4108 -6.72291,1.59316 -6.58452,0.18163 -9.16029,0.43583 -16.17997,1.59676 -6.07736,1.00508 -8.79081,1.26863 -11.78157,1.14428 -2.95848,-0.12301 -3.91281,-0.45419 -6.48994,-2.25218 -1.03311,-0.72077 -2.00286,-1.31217 -2.15501,-1.31421 -0.32432,-0.004 -0.53285,1.50749 -0.32825,2.37976 0.13139,0.5601 0.16162,0.56655 1.43871,0.30703 0.5118,-0.10401 0.6458,-0.0737 0.58736,0.1329 -0.10231,0.36166 -1.09699,0.76441 -1.93348,0.78286 l -0.68304,0.0151 0.13478,6.69056 c 0.15035,7.46284 0.15621,10.94394 0.0193,11.46936 -0.10855,0.41665 0.14798,0.44892 0.97306,0.12241 0.71585,-0.28328 1.1769,-0.73565 1.18192,-1.15966 0.002,-0.17652 0.14484,-0.53708 0.31722,-0.80124 l 0.31342,-0.48031 0.8042,0.36189 c 0.4423,0.19904 1.0323,0.61298 1.31111,0.91987 0.50623,0.55722 0.50685,0.5608 0.45813,2.63357 l -0.0488,2.0756 -0.55497,0.0631 -0.55498,0.0631 v 4.21272 c 0,3.88342 -0.0234,4.21159 -0.29883,4.19839 -0.16436,-0.008 -1.33621,-0.69351 -2.60412,-1.52364 z m -38.76292,-6.30933 c 0,-0.22133 0.0321,-0.40242 0.0714,-0.40242 0.0393,0 0.19297,-0.055 0.34152,-0.12214 0.20374,-0.0921 0.27011,0.007 0.27011,0.40243 0,0.39041 -0.0873,0.52456 -0.34152,0.52456 -0.22768,0 -0.34152,-0.13415 -0.34152,-0.40243 z m 3.07371,-0.30182 c 0,-0.53454 0.11028,-0.6057 0.49448,-0.31904 0.2945,0.21973 0.1238,0.82207 -0.23298,0.82207 -0.16509,0 -0.2615,-0.18545 -0.2615,-0.50303 z m 2.00645,-0.61812 c -0.25828,-0.1651 -0.4696,-0.34257 -0.4696,-0.39437 0,-0.23864 0.64019,-0.046 1.02458,0.30825 0.51548,0.47512 0.14378,0.5328 -0.55498,0.0861 z m 1.82564,-0.58276 c -0.265,-0.23617 -0.27809,-0.2967 -0.0653,-0.30181 0.14641,-0.004 0.41536,0.12654 0.59767,0.28902 0.265,0.23617 0.27809,0.2967 0.0653,0.30182 -0.14641,0.004 -0.41535,-0.12654 -0.59766,-0.28903 z m 3.17026,-0.69968 c -0.35146,-0.32061 -0.37896,-0.40959 -0.15752,-0.50972 0.37135,-0.16791 1.2244,0.24459 1.13801,0.5503 -0.11227,0.39733 -0.5189,0.3805 -0.98049,-0.0406 z m 2.79337,-0.70792 c -0.19204,-0.48805 -0.18899,-0.49028 0.32988,-0.2408 0.65277,0.31385 0.80388,0.73711 0.26241,0.73498 -0.25534,-0.001 -0.46806,-0.17849 -0.59229,-0.49418 z"
       id="path842"
       inkscape:connector-curvature="0" />
    <path
       style="fill:#b380ff;stroke-width:0.18536295"
       d="m 289.05918,-44.112113 c -0.94986,-0.19621 -2.20262,-0.69669 -2.38223,-0.9517 -0.10758,-0.15275 -0.22819,-1.40025 -0.27629,-2.8579 -0.047,-1.42276 -0.18718,-4.17138 -0.31161,-6.10805 -0.12444,-1.93667 -0.20189,-3.55513 -0.17211,-3.59658 0.0298,-0.0415 0.67368,0.0717 1.43089,0.25151 1.81149,0.4301 3.28365,0.41288 4.90867,-0.0574 1.88514,-0.54556 2.9125,-0.81842 3.86696,-1.02702 1.22957,-0.26873 2.72709,-1.37776 2.86214,-2.11965 0.33889,-1.86162 0.0702,1.87162 -0.54839,7.61922 -0.52847,4.91038 -0.76578,6.56568 -0.98188,6.84894 -0.40401,0.52957 -1.26338,1.00861 -2.8979,1.61538 -1.19282,0.4428 -1.70728,0.5219 -3.24448,0.49884 -1.00478,-0.0151 -2.01898,-0.0671 -2.25377,-0.11558 z m 2.2199,-15.96725 c 0,-0.62986 -0.30547,-1.17413 -0.89678,-1.59786 l -0.53347,-0.38226 0.48868,-0.21893 c 0.42659,-0.19111 0.59609,-0.14025 1.33409,0.40033 0.46497,0.34058 1.18162,0.67355 1.59254,0.73991 0.82234,0.13282 1.0057,0.56243 0.36291,0.8503 -0.44245,0.19815 -1.93014,0.62416 -2.17966,0.62416 -0.0926,0 -0.16831,-0.18704 -0.16831,-0.41565 z m 7.00123,-0.3892 c 0,-0.11067 0.0814,-0.20121 0.18084,-0.20121 0.0995,0 0.13335,0.0905 0.0753,0.20121 -0.058,0.11067 -0.13943,0.20121 -0.18084,0.20121 -0.0414,0 -0.0753,-0.0905 -0.0753,-0.20121 z m -12.99424,-1.12988 c -0.19806,-0.2812 -0.18552,-0.31511 0.093,-0.25151 0.17707,0.0404 0.35392,0.18669 0.39301,0.32502 0.10143,0.35894 -0.21516,0.31106 -0.48602,-0.0735 z m 14.33955,-5.06195 c 0.17559,-0.38659 0.12592,-1.97976 -0.1457,-4.67365 -0.22288,-2.21056 -0.22871,-2.1222 0.15393,-2.3335 0.27686,-0.15289 4.12413,-5.03525 6.60841,-8.38641 0.38752,-0.52273 0.76146,-0.95042 0.83099,-0.95042 0.0695,0 -0.13227,0.34798 -0.44843,0.7733 -0.31617,0.42532 -0.72126,0.99123 -0.9002,1.25758 -0.17895,0.26635 -0.63014,0.89173 -1.00264,1.38973 -1.03372,1.38198 -1.3838,1.8746 -1.64438,2.31395 -0.4369,0.73661 3.35019,-3.96808 4.50582,-5.59756 0.3738,-0.52708 0.9776,-1.33484 1.34178,-1.79504 1.55925,-1.97032 2.31336,-4.01984 0.84052,-2.28436 -0.67138,0.7911 -0.77938,0.79476 -2.00153,0.0678 l -0.67644,-0.4024 -0.48286,0.67973 c -0.26557,0.37385 -0.52334,0.86807 -0.57281,1.09826 -0.0495,0.2302 -0.27575,0.50184 -0.50285,0.60364 -0.24428,0.10951 -1.59957,2.02132 -3.31863,4.68137 -2.74299,4.24447 -2.90572,4.5459 -2.90572,5.38244 0,0.5135 -0.0795,0.88616 -0.18895,0.88616 -0.12631,0 -0.16877,-0.48357 -0.12807,-1.45879 l 0.0609,-1.45879 -0.55498,0.0511 c -0.30523,0.0281 -0.55497,0.003 -0.55497,-0.0564 0,-0.0591 0.26895,-0.38577 0.59767,-0.72585 0.32871,-0.34009 0.59766,-0.70662 0.59766,-0.81452 0,-0.10791 0.44359,-0.84553 0.98575,-1.63917 0.54216,-0.79363 1.42585,-2.12206 1.96374,-2.95206 1.12023,-1.72858 3.00669,-4.58782 5.5888,-8.47074 0.98625,-1.48311 2.02363,-3.04532 2.30528,-3.47158 0.28165,-0.42625 0.99298,-1.465327 1.58073,-2.309057 0.58775,-0.84373 1.04284,-1.6268 1.0113,-1.74015 -0.0315,-0.11335 -0.36124,-0.23297 -0.73268,-0.26582 -0.73553,-0.0651 -1.67441,0.52679 -2.00989,1.26701 -0.64488,1.42286 -4.4961,7.981017 -5.11514,8.710447 l -0.42428,0.49994 -0.57035,-0.40882 c -0.3137,-0.22485 -1.17701,-0.70391 -1.91848,-1.06457 -1.53275,-0.74557 -1.68195,-0.70852 -2.25072,0.55885 -0.20139,0.44874 -0.46076,0.93884 -0.57638,1.08912 -0.11562,0.15028 -0.49862,0.9976 -0.85111,1.88293 l -0.64089,1.6097 -0.13098,-5.95757 c -0.0855,-3.88968 -0.0717,-6.089687 0.04,-6.338197 0.094,-0.20934 0.1986,-1.34661 0.2324,-2.52726 l 0.0615,-2.14665 -1.28072,-0.98337 c -0.70439,-0.54086 -1.40957,-1.04086 -1.56706,-1.11111 -0.36072,-0.16089 -0.69449,0.29119 -0.54772,0.74189 0.0611,0.18749 0.008,0.56674 -0.11693,0.84277 -0.17968,0.39561 -0.18448,0.58387 -0.0227,0.88915 0.1129,0.213 0.20526,0.71635 0.20526,1.11854 v 0.73127 l -2.17721,-0.13417 c -1.19747,-0.0738 -2.58064,-0.12576 -3.07371,-0.11547 -1.00381,0.0209 -1.11637,-0.20292 -0.64149,-1.27577 0.19302,-0.43609 0.20841,-0.66934 0.065,-0.9851 -0.10335,-0.22755 -0.15168,-0.85802 -0.1074,-1.40104 0.0549,-0.67309 0.0203,-0.96015 -0.10874,-0.902 -0.10408,0.0469 -0.6503,0.24907 -1.21381,0.44921 -0.7371,0.2618 -1.25106,0.61852 -1.83176,1.27133 -0.44395,0.49909 -0.85096,0.85584 -0.90447,0.79279 -0.19562,-0.2305 0.55096,-1.46229 0.95428,-1.57448 0.56558,-0.15732 0.60947,-0.67907 0.081,-0.9628 -0.61653,-0.331 -0.53964,-0.60754 0.29074,-1.04561 0.46241,-0.24394 0.72482,-0.51322 0.72574,-0.74471 0.002,-0.50321 0.95631,-0.59221 1.53762,-0.1434 0.349,0.26946 0.4893,0.29084 0.64979,0.099 0.15961,-0.19076 0.0965,-0.33809 -0.28678,-0.6691 -0.45068,-0.38925 -0.766,-0.43142 -3.79945,-0.50803 -2.32041,-0.0586 -3.30799,-0.018 -3.30799,0.13616 0,0.12084 0.0822,0.21971 0.18264,0.21971 0.10045,0 0.15808,0.20365 0.12807,0.45256 -0.0378,0.31372 -0.23792,0.52295 -0.65223,0.68198 -0.35141,0.13489 -3.20096,0.32266 -6.91585,0.45571 -3.475,0.12446 -6.67872,0.27807 -7.11938,0.34136 -0.44065,0.0633 -0.97855,0.046 -1.19533,-0.0383 l -0.39414,-0.15338 0.4269,-0.14565 c 0.2348,-0.0801 1.00323,-0.15547 1.70762,-0.16746 1.95905,-0.0334 3.07371,-0.23258 3.07371,-0.54937 0,-0.41232 -3.00153,-0.38759 -3.35391,0.0276 -0.18643,0.21967 -0.34142,0.24743 -0.57149,0.10234 -0.17363,-0.10949 -0.54319,-0.14546 -0.82124,-0.0799 -0.29213,0.0688 -0.5546,0.0256 -0.62172,-0.10234 -0.0639,-0.12182 -0.0924,-0.22792 -0.0634,-0.23578 0.0789,-0.0214 2.89122,-0.35821 4.8341,-0.57898 0.93918,-0.10671 2.3312,-0.19798 3.09337,-0.2028 1.14852,-0.007 1.46496,-0.0822 1.84841,-0.43759 0.41333,-0.38311 0.59636,-0.41455 1.71694,-0.2949 0.86972,0.0929 1.29136,0.0632 1.37524,-0.0967 0.0665,-0.12685 0.0151,-0.31626 -0.11435,-0.4209 -0.15057,-0.12173 0.50279,-0.15068 1.81381,-0.0804 1.12702,0.0604 3.40248,0.16665 5.05656,0.23605 l 3.00742,0.12619 0.19429,-0.65673 c 0.12647,-0.42748 0.13649,-0.73879 0.0287,-0.89182 -0.50424,-0.71591 1.08636,-3.39321 2.16726,-3.64794 0.39552,-0.0932 0.54847,-0.25663 0.61311,-0.65511 0.12404,-0.76454 0.002,-0.86748 -0.64965,-0.54678 -0.47506,0.23389 -0.56244,0.23635 -0.48995,0.0138 0.0862,-0.2647 0.49141,-0.55173 0.8279,-0.58645 0.37592,-0.0388 0.24994,-0.75774 -0.26509,-1.51292 -0.47154,-0.6914 -0.53245,-0.90825 -0.44213,-1.57387 0.0839,-0.61816 0.0374,-0.83993 -0.23319,-1.11296 -0.40217,-0.40576 -0.45942,-1.35098 -0.0818,-1.35098 0.14088,0 0.25614,0.0817 0.25614,0.18153 0,0.0998 0.22963,0.27585 0.51029,0.39114 0.28065,0.11528 0.83776,0.47219 1.23802,0.79314 0.40025,0.32094 1.84196,1.33349 3.20378,2.25009 1.36183,0.91661 2.61052,1.84622 2.77488,2.06581 0.18357,0.24526 0.29884,0.72581 0.29884,1.2459 0,0.98685 -0.44384,2.91275 -0.76064,3.30062 -0.12049,0.14751 -0.69022,0.31854 -1.26607,0.38006 -1.07125,0.11446 -1.22478,0.23528 -0.81197,0.63898 0.25326,0.24767 1.18574,0.2781 3.6071,0.11774 0.84527,-0.056 2.42055,-0.12937 3.50062,-0.16309 1.08007,-0.0337 2.17539,-0.13312 2.43405,-0.22089 0.63899,-0.21683 6.97792,0.37057 11.99532,1.11154 2.25406,0.33289 4.94355,0.72522 5.97666,0.87187 7.15188,1.01516 8.12417,1.19848 7.72879,1.45721 -0.21232,0.13894 -0.5205,0.25582 -0.68486,0.25974 -0.16436,0.004 -0.29884,0.14295 -0.29884,0.30895 0,0.43593 -0.5287,0.37189 -0.62812,-0.0761 -0.0998,-0.44944 -0.744,-0.83188 -1.38636,-0.82298 -0.44273,0.006 -0.44803,0.0185 -0.13009,0.30182 0.18231,0.16248 0.45329,0.29542 0.60218,0.29542 0.21148,0 0.25687,0.17094 0.20747,0.78131 -0.0665,0.82184 0.19656,1.24418 0.53015,0.8511 0.27832,-0.32795 0.89905,-0.27314 1.16381,0.10277 0.18654,0.26484 0.43671,0.30395 1.32141,0.2066 0.71755,-0.0789 1.21611,-0.0366 1.45574,0.12369 0.85541,0.57217 14.14879,1.26713 14.90165,0.77904 0.50604,-0.32806 3.01529,-1.23481 3.41712,-1.23481 0.51975,0 1.12258,0.64097 1.34793,1.43322 0.23377,0.8218 0.69373,0.95921 1.30726,0.39054 0.33462,-0.31015 0.49071,-0.72646 0.65348,-1.74294 0.41032,-2.56236 -0.0533,-5.45685 -1.1927,-7.44615 -0.29377,-0.51291 -0.49707,-0.97622 -0.45178,-1.02958 0.0453,-0.0534 0.45231,0.0396 0.90451,0.20655 1.43598,0.53018 4.34191,1.41533 11.06789,3.37127 2.34798,0.6828 5.11432,1.5352 6.14743,1.89421 1.0331,0.35902 2.72365,0.94662 3.75675,1.30577 1.92171,0.66806 2.19926,0.75263 4.26686,1.30012 0.65622,0.17377 1.65518,0.48701 2.21991,0.69609 0.56471,0.20907 1.47304,0.49666 2.01849,0.63908 0.61389,0.16029 1.05428,0.39664 1.15588,0.62037 0.14097,0.31037 0.19576,3.97235 0.10946,7.315417 -0.0143,0.55333 -0.002,1.7757 0.0279,2.71637 0.0296,0.94066 0.0271,1.93457 -0.006,2.20867 -0.0505,0.42343 0.0433,0.54127 0.62361,0.78365 0.77833,0.32507 3.70375,0.54141 4.61057,0.34096 0.54183,-0.11977 0.57796,-0.16584 0.34528,-0.44002 -0.33994,-0.40056 -0.33183,-1.16396 0.0161,-1.5041 0.22431,-0.21936 0.25536,-0.50614 0.16601,-1.53373 -0.0709,-0.81529 -0.0476,-1.26392 0.0656,-1.26392 0.0965,0 0.17551,0.26629 0.17551,0.59176 0,0.32547 0.0684,0.64154 0.15189,0.70238 0.0835,0.0608 0.1988,0.42836 0.25614,0.81672 0.0573,0.38836 0.15212,1.03344 0.2106,1.43351 0.0744,0.5087 0.0359,0.78 -0.12807,0.90238 -0.40861,0.305 1.63146,0.20236 2.76218,-0.13898 1.279,-0.38609 2.5841,-1.02554 2.76057,-1.35257 0.1474,-0.27316 0.18254,-2.15035 0.0402,-2.15035 -0.0516,0 -0.32608,0.1415 -0.60992,0.31446 -0.40473,0.24661 -0.56915,0.26256 -0.76206,0.0739 -0.18419,-0.18012 -0.19817,-0.30844 -0.0557,-0.51074 0.10466,-0.14861 0.27891,-0.74039 0.38722,-1.31508 0.1083,-0.57468 0.30341,-1.086707 0.43356,-1.137827 0.17903,-0.0703 0.20908,0.0365 0.12343,0.438607 -0.0937,0.43971 -0.0383,0.57179 0.3203,0.76432 0.36831,0.19774 0.47079,0.1747 0.68135,-0.15321 0.23354,-0.36369 0.24816,-0.34919 0.25328,0.25121 0.003,0.35045 -0.0857,0.67297 -0.19706,0.71671 -0.1286,0.0505 -0.24947,0.88269 -0.33123,2.28041 -0.0708,1.21048 -0.40185,3.8307 -0.73567,5.8227 -0.33381,1.99201 -0.73201,4.43674 -0.88487,5.43274 -0.35949,2.34214 -0.5321,2.54675 -2.70473,3.20635 -2.02664,0.61528 -5.18541,0.74254 -5.55087,0.22364 -0.11329,-0.16084 -0.61304,-0.43187 -1.11055,-0.60229 -1.58214,-0.54196 -1.65615,-0.68368 -1.90748,-3.65273 -0.5429,-6.41354 -0.51017,-6.18477 -0.93222,-6.51455 -1.02695,-0.80244 -1.04544,-0.84759 -1.2253,-2.98878 -0.15446,-1.83866 -0.21001,-2.06287 -0.53276,-2.15052 -0.65822,-0.17873 -16.5564,-2.45685 -21.1079,-3.024627 -1.36183,-0.16989 -2.97552,-0.39376 -3.586,-0.49751 -1.34789,-0.22906 -2.56023,-0.25066 -2.56476,-0.0457 -0.0383,1.732227 -0.82835,6.167337 -0.84528,4.744947 -0.009,-0.77619 -0.16946,-1.01848 -0.60814,-0.91967 -0.301,0.0678 -0.53328,0.38795 -0.84525,1.16499 -0.2366,0.58931 -0.43018,1.12976 -0.43018,1.20099 0,0.23936 -1.24763,1.92636 -1.57935,2.13555 -0.618,0.38973 -0.52925,-0.0288 0.15175,-0.71569 0.48314,-0.48729 0.73279,-0.9393 0.8606,-1.55816 0.099,-0.47946 0.23689,-1.0302 0.3064,-1.22386 0.11294,-0.31468 0.007,-0.35212 -0.99253,-0.35212 -1.04403,0 -1.13381,0.0361 -1.34167,0.53884 -0.19948,0.48251 -1.56387,1.82857 -1.8877,1.86235 -0.31302,0.0327 -0.0652,-0.50599 0.72574,-1.57754 0.46959,-0.63618 0.85381,-1.21475 0.85381,-1.28572 0,-0.071 0.3366,-0.74303 0.748,-1.49348 1.04145,-1.899727 1.30114,-2.928797 1.30114,-5.156077 0,-2.86973 0.11256,-2.81131 -3.2648,-1.69441 -1.53849,0.50878 -3.0662,0.98834 -3.39491,1.0657 -1.69579,0.39908 -3.36709,1.18531 -4.14098,1.94805 -0.44611,0.4397 -0.81111,0.90989 -0.81111,1.04488 0,0.13499 0.23271,0.50815 0.51714,0.82924 0.51085,0.576707 0.5228,0.579467 0.98188,0.226797 0.2556,-0.196357 0.9409,-0.629497 1.52288,-0.962527 0.91313,-0.52253 1.17056,-0.58595 1.87838,-0.4628 0.65132,0.11333 0.96969,0.31794 1.54597,0.99353 0.70744,0.829357 0.72574,0.884267 0.72574,2.177617 0,2.21875 -0.72752,3.93873 -2.63152,6.22131 -0.41366,0.49592 -0.53878,0.75455 -0.36503,0.75455 0.34629,0 0.34187,0.52554 -0.006,0.68272 -0.47393,0.21429 -0.74883,0.13777 -0.64545,-0.17969 0.0541,-0.166 0.0226,-0.30182 -0.0699,-0.30182 -0.0925,0 -0.44404,0.13582 -0.78121,0.30182 -1.36493,0.67201 -2.88424,0.22585 -3.60576,-1.05887 -0.49502,-0.88142 -0.56293,-1.45675 -0.36049,-3.05388 l 0.13874,-1.09456 -0.54587,0.54123 c -0.30023,0.29767 -0.61682,0.54122 -0.70353,0.54122 -0.27017,0 -0.16486,1.6554 0.18332,2.88157 0.18292,0.6442 0.56318,1.51435 0.84504,1.93368 0.28185,0.41932 0.46468,0.8187 0.40629,0.8875 -0.14554,0.17149 -0.96162,-0.0802 -1.13883,-0.35129 -0.0878,-0.13425 -0.10656,-0.0828 -0.048,0.13159 0.0735,0.26923 -6.8e-4,0.35212 -0.3151,0.35212 -0.35195,0 -0.41888,-0.10879 -0.46424,-0.75455 -0.0644,-0.91676 -0.53538,-1.06164 -0.62017,-0.19077 -0.0595,0.61069 -0.68911,1.04544 -1.22427,0.8453 -0.37504,-0.14026 -0.6205,0.2226 -0.72003,1.06439 -0.0733,0.62034 -0.0502,0.65635 0.36276,0.56524 0.39971,-0.0882 2.37255,-0.38997 4.23656,-0.64807 0.39697,-0.055 0.76377,-0.18002 0.8151,-0.2779 0.0513,-0.0979 0.45656,-0.23492 0.90048,-0.30454 0.77332,-0.12127 1.75594,-0.40928 3.48604,-1.02177 0.44028,-0.15586 0.9436,-0.28339 1.11848,-0.28339 0.17489,0 0.39098,-0.0821 0.4802,-0.18252 0.0892,-0.10038 0.43118,-0.27165 0.75989,-0.3806 0.32872,-0.10895 0.75136,-0.27013 0.93919,-0.35819 0.29533,-0.13845 0.31194,-0.11719 0.12281,0.15718 -0.25073,0.36372 -1.31329,0.83561 -4.22109,1.87458 -1.12703,0.4027 -2.27967,0.82394 -2.56143,0.9361 -0.65145,0.25932 -2.87462,0.95433 -3.72083,1.16321 -0.35592,0.0879 -0.69157,0.2121 -0.74589,0.27611 -0.1742,0.20526 0.79168,0.38937 1.01102,0.19272 0.20358,-0.18253 1.64614,-0.36638 1.4855,-0.18933 -0.16868,0.18593 -2.78119,0.94417 -4.62819,1.34326 -2.0895,0.45149 -4.07196,0.95846 -3.85476,0.98578 0.0737,0.009 0.0518,0.19795 -0.0487,0.41929 -0.13488,0.29697 -0.35755,0.40242 -0.84974,0.40242 -0.36683,0 -0.71445,0.0906 -0.7725,0.20122 -0.058,0.11066 -0.44226,0.20121 -0.85381,0.20121 -0.93294,0 -1.22076,0.39415 -0.30891,0.42302 l 0.65044,0.0206 -0.59767,0.17573 c -0.32872,0.0967 -1.374,0.23615 -2.32286,0.30999 l -1.72519,0.13425 -1.21691,-0.73076 c -0.78965,-0.47419 -1.5629,-0.77313 -2.20233,-0.85144 -1.21834,-0.14921 -2.51388,-0.6149 -2.78618,-1.00151 -0.14496,-0.20582 -0.1488,-0.2908 -0.0131,-0.2908 0.39009,0 0.17492,-0.7915 -0.33045,-1.21552 -0.63529,-0.53304 -0.80989,-0.3859 -0.5404,0.45539 0.11152,0.34814 0.16496,0.67755 0.11874,0.73201 -0.072,0.0848 -1.48973,-0.15561 -2.99255,-0.50746 -0.37488,-0.0878 -0.61329,0.13428 -1.70762,1.59038 -0.69955,0.93081 -3.29484,4.33391 -5.76731,7.56245 -4.0608,5.30257 -5.15116,6.59229 -4.66114,5.5134 z m 2.58221,-9.20094 c 0.12253,-0.17396 0.13913,-0.30182 0.0392,-0.30182 -0.0954,0 -0.21763,0.13582 -0.27169,0.30182 -0.0541,0.166 -0.0717,0.30182 -0.0392,0.30182 0.0325,0 0.15477,-0.13582 0.27169,-0.30182 z m 19.97913,-3.72243 c 0,-0.25769 -1.53998,-0.25769 -1.87838,0 -0.1805,0.13745 0.059,0.19596 0.81112,0.19813 0.59941,0.002 1.06726,-0.0851 1.06726,-0.19813 z m 10.16033,-2.41455 c 0.058,-0.11067 -0.0481,-0.20121 -0.23599,-0.20121 -0.18784,0 -0.38901,0.0905 -0.44706,0.20121 -0.058,0.11067 0.0482,0.20121 0.23599,0.20121 0.18784,0 0.38901,-0.0905 0.44706,-0.20121 z m -4.58286,-2.66607 c -0.0474,-0.13833 -0.0861,-0.0251 -0.0861,0.25152 0,0.27667 0.0388,0.38985 0.0861,0.25151 0.0474,-0.13833 0.0474,-0.36469 0,-0.50303 z m -16.50622,-4.76212 c 0,-0.44687 -0.69907,-2.04868 -0.94204,-2.15854 -0.46143,-0.20864 -0.4813,0.0787 -0.085,1.22917 0.27448,0.79688 0.47523,1.1139 0.70537,1.1139 0.17693,0 0.32169,-0.083 0.32169,-0.18453 z m 26.29179,-3.72221 c 0.14392,-0.32271 0.391,-0.74675 0.54908,-0.94231 0.37699,-0.46638 0.8867,-1.3875 0.80298,-1.45109 -0.14378,-0.1092 -1.36261,-0.742297 -1.42906,-0.742297 -0.20218,0 -1.11134,1.357177 -1.11202,1.660007 -5.1e-4,0.19366 -0.074,0.35212 -0.16353,0.35212 -0.14095,0 -0.51663,1.20875 -0.51935,1.67103 -5.2e-4,0.0891 0.36156,0.13434 0.80464,0.1006 0.6914,-0.0526 0.84269,-0.1445 1.06726,-0.64806 z m -11.88172,-1.11493 c 0.23642,-0.10591 0.55836,-0.49073 0.71543,-0.85515 0.48628,-1.128207 1.4367,-2.363687 2.14658,-2.790427 0.37327,-0.22439 1.37937,-0.58442 2.23579,-0.80007 1.79362,-0.45165 1.89451,-0.46264 1.75197,-0.19088 -0.058,0.11067 -0.29311,0.20121 -0.52236,0.20121 -0.55494,0 -0.53309,0.36038 0.032,0.52749 0.36975,0.10935 0.55212,0.004 1.03533,-0.5998 0.39864,-0.4979 0.73348,-0.73002 1.04535,-0.72466 0.44406,0.008 0.44001,0.0175 -0.12598,0.30689 -0.40065,0.20485 -0.52952,0.36418 -0.40921,0.50595 0.12031,0.14176 0.35826,0.11402 0.75558,-0.0881 0.31899,-0.16225 1.04103,-0.41061 1.60455,-0.5519 0.56351,-0.14129 1.29352,-0.3877 1.62223,-0.54758 1.08647,-0.52841 2.4357,-0.80587 3.36766,-0.69253 0.50432,0.0613 1.08634,0.0173 1.29338,-0.0977 0.20704,-0.11509 0.83749,-0.3179 1.40101,-0.45071 0.56351,-0.13281 1.20108,-0.32338 1.41682,-0.42349 0.21573,-0.10012 0.54613,-0.18203 0.73421,-0.18203 0.40272,0 1.42232,-0.58499 1.29045,-0.74039 -0.05,-0.0589 -0.42966,0.0454 -0.84371,0.2317 -0.73137,0.32912 -1.00869,0.3353 -4.17732,0.0931 -0.21132,-0.0162 -0.38421,-0.15408 -0.38421,-0.30649 0,-0.22739 -0.46729,-0.26005 -2.60412,-0.18201 -1.43227,0.0523 -3.98729,0.14072 -5.67783,0.19647 -3.88947,0.12825 -5.68738,0.33252 -11.6118,1.3193 -5.5374,0.92231 -4.91036,0.84164 -4.79231,0.61656 0.052,-0.0992 0.76734,-0.28249 1.58962,-0.40742 0.82229,-0.12493 2.2635,-0.37456 3.20269,-0.55473 0.93919,-0.18017 2.45386,-0.43096 3.36593,-0.55731 0.91207,-0.12635 1.71892,-0.30146 1.793,-0.38912 0.14822,-0.17542 -6.89119,0.007 -10.53793,0.27231 -1.2679,0.0924 -4.41846,0.0916 -7.00123,-0.002 -2.58277,-0.0934 -5.15701,-0.17789 -5.72052,-0.18777 -0.9976,-0.0175 -1.05094,-0.0469 -2.0261,-1.11867 -0.60595,-0.66591 -1.15518,-1.10066 -1.39052,-1.10066 -0.3911,0 -0.59628,-0.33891 -0.59628,-0.98488 0,-0.65119 -0.95783,-1.4888 -1.91947,-1.67854 -2.1437,-0.42298 -2.31153,-0.4211 -2.54981,0.0285 -0.12289,0.23188 -0.31139,0.4216 -0.41887,0.4216 -0.26263,0 -0.78767,0.96693 -0.65863,1.21296 0.0564,0.10754 0.27092,0.19564 0.47669,0.19577 0.20578,1.4e-4 0.60422,0.2334 0.88543,0.51836 0.37876,0.38381 0.63327,0.48936 0.98188,0.40721 0.34345,-0.0809 0.47059,-0.0307 0.47059,0.18589 0,0.16323 -0.0814,0.29678 -0.18084,0.29678 -0.0995,0 -0.13335,0.0906 -0.0753,0.20122 0.058,0.11066 0.25543,0.20121 0.43865,0.20121 0.18321,0 0.46471,0.18109 0.62554,0.40242 0.16083,0.22134 0.44329,0.40243 0.62768,0.40243 0.37381,0 1.1257,0.7437 1.1257,1.11344 0,0.13115 0.40026,0.31909 0.88947,0.41766 0.74344,0.14978 0.90554,0.25991 0.98727,0.67071 0.16099,0.80912 1.29938,1.05357 4.84025,1.03936 2.86843,-0.0115 7.19459,-0.27859 9.06157,-0.55942 0.59649,-0.0897 0.80298,-0.0612 0.7188,0.0993 -0.16566,0.31584 0.57013,2.24929 0.85598,2.24929 0.16995,0 0.23512,0.29434 0.23512,1.06189 0,1.281387 0.32106,1.897437 1.07217,2.057297 1.95557,0.4162 6.84574,0.61751 7.532,0.31006 z m 10.60653,-5.843807 c 0.46944,-0.23769 0.73905,-0.23769 0.4269,0 -0.14087,0.10728 -0.3714,0.19008 -0.51228,0.18399 -0.16889,-0.007 -0.13981,-0.07 0.0854,-0.18399 z m -19.92577,-0.13745 c 0.12327,-0.0581 0.27056,-0.051 0.3273,0.0159 0.0567,0.0669 -0.0441,0.11442 -0.22413,0.10568 -0.19893,-0.01 -0.23939,-0.0573 -0.10317,-0.12156 z m 23.34954,-0.85831 c 0.0892,-0.105 0.50802,-0.24145 0.93066,-0.30322 l 0.76842,-0.11231 -0.51228,0.29414 c -0.5821,0.33424 -1.44243,0.42223 -1.1868,0.12139 z m -30.53215,2.85709 c 0.0877,-0.31038 -0.37254,-0.5398 -0.74502,-0.37138 -0.22664,0.10248 -0.23698,0.17904 -0.0584,0.43258 0.24625,0.34962 0.69703,0.31528 0.80342,-0.0612 z m 66.95668,-0.54886 c -0.0448,-0.0528 -0.57632,-0.18586 -1.1811,-0.29565 -9.24136,-1.67759 -13.63051,-2.42329 -14.16288,-2.4062 -0.56021,0.018 1.29235,0.45382 3.75676,0.88383 1.08006,0.18845 3.07798,0.55739 4.4398,0.81985 4.79954,0.92499 5.5577,1.05234 6.38934,1.07317 0.46176,0.0116 0.80291,-0.0222 0.75808,-0.075 z m 1.38883,-2.41652 c 0.29403,-0.41746 0.0728,-1.28362 -0.38709,-1.51566 -0.97156,-0.49019 -16.2131,-4.82154 -16.58227,-4.71236 -0.54404,0.16089 -1.39211,1.22212 -1.72247,2.1554 -0.31597,0.89264 -0.42244,0.81399 1.70287,1.25792 0.84527,0.17656 2.80477,0.58733 4.35443,0.91283 1.54966,0.3255 3.7781,0.79254 4.95209,1.03786 1.17399,0.24532 2.50748,0.43203 2.96332,0.41491 0.45583,-0.0171 0.7751,0.0311 0.70948,0.10707 -0.0656,0.076 0.56037,0.23946 1.39111,0.36322 2.13261,0.31772 2.38124,0.31571 2.61853,-0.0212 z m -86.74599,-0.65656 c -5.2e-4,-0.19366 -0.18741,-0.62376 -0.41542,-0.95576 -0.34375,-0.50051 -0.46759,-0.56579 -0.72489,-0.38213 -0.17068,0.12183 -0.33396,0.49967 -0.36285,0.83964 -0.0433,0.50973 0.0166,0.6337 0.34152,0.70685 0.87876,0.19785 1.16249,0.1469 1.16164,-0.2086 z m 69.37607,0.22014 c -0.11561,-0.0551 -0.34614,-0.0585 -0.51229,-0.007 -0.16614,0.051 -0.0716,0.0961 0.21021,0.10021 0.28175,0.004 0.41769,-0.0376 0.30208,-0.0928 z m -1.19533,-0.20121 c -0.11561,-0.0551 -0.34614,-0.0585 -0.51229,-0.007 -0.16614,0.051 -0.0716,0.0961 0.2102,0.10022 0.28176,0.004 0.4177,-0.0376 0.30209,-0.0928 z m -30.86845,-0.67287 c -0.058,-0.11066 -0.21173,-0.20121 -0.34152,-0.20121 -0.12979,0 -0.28348,0.0906 -0.34152,0.20121 -0.0601,0.11457 0.087,0.20122 0.34152,0.20122 0.25456,0 0.40162,-0.0866 0.34152,-0.20122 z m 20.75604,-0.30698 c 0.5964,-0.36341 0.69492,-0.78147 0.11959,-0.50748 -0.21131,0.10064 -0.59553,0.23624 -0.85381,0.30134 -0.25827,0.0651 -0.46959,0.20718 -0.46959,0.31574 0,0.29562 0.63343,0.23795 1.20381,-0.1096 z m -17.55425,-0.0275 c -0.1174,-0.0558 -0.30951,-0.0558 -0.42691,0 -0.1174,0.0558 -0.0213,0.10149 0.21346,0.10149 0.23479,0 0.33085,-0.0457 0.21345,-0.10149 z m 19.16801,-0.26917 c -0.0581,-0.11066 -0.2739,-0.19218 -0.47967,-0.18115 -0.34829,0.0187 -0.34464,0.0312 0.0528,0.18115 0.2348,0.0886 0.45065,0.17013 0.47968,0.18116 0.029,0.011 0.005,-0.0705 -0.0528,-0.18116 z m 30.90788,0 c -0.058,-0.11066 -0.21627,-0.20121 -0.3516,-0.20121 -0.13534,0 -0.24606,0.0906 -0.24606,0.20121 0,0.11067 0.15822,0.20122 0.35159,0.20122 0.19339,0 0.30411,-0.0906 0.24607,-0.20122 z m 0.85381,0 c 0.058,-0.11066 -0.0142,-0.20121 -0.16069,-0.20121 -0.14641,0 -0.26621,0.0906 -0.26621,0.20121 0,0.11067 0.0723,0.20122 0.16068,0.20122 0.0884,0 0.20818,-0.0906 0.26622,-0.20122 z m -1.83461,-0.45272 c -0.0385,-0.13834 -0.33311,-0.28018 -0.65458,-0.31522 -0.5566,-0.0607 -0.56821,-0.0489 -0.243,0.24512 0.4143,0.37462 0.99505,0.41997 0.89758,0.0701 z m -91.93724,-1.86122 c -0.0541,-0.166 -0.12849,-0.30182 -0.1654,-0.30182 -0.0369,0 -0.0671,0.13582 -0.0671,0.30182 0,0.166 0.0744,0.30182 0.1654,0.30182 0.091,0 0.12117,-0.13582 0.0671,-0.30182 z m -15.18271,-1.33357 c 0.0935,-0.10113 -0.44509,-0.17553 -1.27066,-0.17553 -1.29218,0 -1.40034,0.0288 -1.10141,0.29287 0.35362,0.31244 2.05253,0.22839 2.37207,-0.11734 z m 20.80053,-0.48549 c 0.54266,-0.5929 0.59635,-0.89731 0.15828,-0.89731 -0.2921,0 -1.22728,0.96666 -1.22728,1.26859 0,0.32319 0.63536,0.10253 1.069,-0.37128 z m -4.48424,-0.8859 c 0,-0.35535 -0.57643,-1.01747 -0.88579,-1.01747 -0.0697,0 -0.20739,0.17753 -0.30595,0.39451 -0.15051,0.33138 -0.10365,0.44278 0.29283,0.69618 0.64338,0.41122 0.89891,0.3904 0.89891,-0.0732 z m 1.11651,-2.36182 c 0.21643,-0.25503 0.26763,-0.57692 0.20802,-1.30789 -0.0742,-0.91035 -0.0545,-0.96959 0.32277,-0.96959 0.3449,0 0.40184,0.0991 0.40184,0.69961 0,1.11709 1.13198,1.71801 1.44215,0.76558 0.13743,-0.422 -0.33628,-1.23752 -0.85341,-1.46919 -0.25928,-0.11616 -0.41798,-0.34678 -0.41798,-0.60741 0,-0.35281 -0.089,-0.41004 -0.55497,-0.3571 -0.4214,0.0479 -0.56786,0.16973 -0.60849,0.50627 -0.0294,0.24377 -0.19599,0.4965 -0.37013,0.56163 -0.55782,0.20861 -1.19859,0.92334 -1.19859,1.33693 0,1.09513 0.9826,1.60257 1.62879,0.84116 z m 3.73166,-1.23345 c -0.0578,-0.29755 -0.28874,-0.87876 -0.5131,-1.29157 -0.45594,-0.83892 -1.70869,-1.72039 -1.98399,-1.396 -0.21332,0.25136 -0.023,0.63748 0.31429,0.63748 0.79179,0 1.9452,1.49365 1.9452,2.51901 0,0.17694 0.0771,0.26555 0.17139,0.1969 0.0943,-0.0686 0.12406,-0.36826 0.0662,-0.66582 z m -3.99436,-6.4649 c 0,-0.65695 -0.1632,-0.86973 -0.48649,-0.6343 -0.16928,0.12328 -0.17077,0.26775 -0.007,0.69097 0.27262,0.70503 0.49362,0.67967 0.49362,-0.0567 z m 3.41524,49.277207 c -0.2348,-0.0842 -0.70316,-0.16212 -1.0408,-0.17315 -1.05079,-0.0343 -1.17911,-0.39406 -1.17911,-3.3056 0,-2.13219 0.0419,-2.54962 0.25615,-2.54962 0.21338,0 0.25614,0.40111 0.25614,2.40268 0,1.32147 0.0576,2.44327 0.12807,2.4929 0.0704,0.0496 0.51228,0.0139 0.98188,-0.0794 0.46959,-0.0933 1.43013,-0.26666 2.13452,-0.38533 0.70439,-0.11868 1.4344,-0.26305 1.62224,-0.32084 0.18784,-0.0578 0.49521,0.028 0.68305,0.19068 0.34079,0.29512 0.34076,0.29696 -0.018,0.86478 -0.30592,0.48425 -0.52219,0.58991 -1.45148,0.70912 -0.6006,0.077 -1.28411,0.17759 -1.51891,0.22345 -0.23479,0.0459 -0.61901,0.0145 -0.8538,-0.0697 z m -8.33018,-4.55357 c 0.0396,-1.95639 0.0938,-2.38026 0.30437,-2.38026 0.21282,0 0.25614,0.39094 0.25614,2.31119 0,2.05718 -0.0334,2.31878 -0.30436,2.38026 -0.28028,0.0636 -0.30056,-0.11935 -0.25615,-2.31119 z m 5.50255,-2.57765 c -0.2869,-0.25793 -0.29703,-0.32514 -0.0753,-0.49994 0.14087,-0.11108 0.42275,-0.20335 0.62639,-0.20504 0.20363,-0.002 0.49179,-0.058 0.64035,-0.12522 0.35681,-0.16133 0.35802,0.39223 0.002,0.81201 -0.3366,0.39662 -0.76498,0.40316 -1.19319,0.0182 z m 2.33615,-0.27768 c -0.34849,-0.27274 -0.0842,-0.6068 0.46553,-0.58839 1.0728,0.0359 3.4853,-1.46296 3.66614,-2.27779 0.0465,-0.20965 0.20946,-0.38118 0.36208,-0.38118 0.39888,0 0.5507,0.61362 0.20777,0.83976 -0.15539,0.10246 -0.28252,0.35679 -0.28252,0.56517 0,0.21858 -0.16255,0.43623 -0.38422,0.51446 -0.21131,0.0746 -0.50063,0.30833 -0.64291,0.51944 -0.15773,0.23403 -0.62428,0.45662 -1.19534,0.57028 -0.51514,0.10254 -1.16715,0.23953 -1.44891,0.30443 -0.28176,0.0649 -0.61818,0.0351 -0.74762,-0.0662 z m -4.32187,-0.16541 c 0.12327,-0.0581 0.27055,-0.051 0.32729,0.0159 0.0567,0.0669 -0.0441,0.11442 -0.22412,0.10568 -0.19893,-0.01 -0.23939,-0.0573 -0.10317,-0.12157 z m -2.74593,-0.6674 c -0.16083,-0.22133 -0.43864,-0.40242 -0.61735,-0.40242 -0.50874,0 -0.5494,-0.51449 -0.0816,-1.03236 l 0.42598,-0.47155 0.32632,0.50044 c 0.17947,0.27524 0.32801,0.61586 0.3301,0.75693 0.002,0.14107 0.20053,0.34463 0.44098,0.45235 0.24045,0.10772 0.3896,0.28657 0.33145,0.39745 -0.17843,0.34018 -0.84722,0.22398 -1.15591,-0.20084 z m -1.43217,-1.71898 c -0.0556,-0.17078 -0.0551,-0.36477 10e-4,-0.4311 0.14765,-0.17398 0.6371,0.35051 0.52555,0.56318 -0.14574,0.27787 -0.41528,0.21029 -0.52678,-0.13208 z m -52.99508,-7.47495 c -0.79962,-0.15838 -2.98714,-0.8739 -3.36349,-1.10016 -0.4796,-0.28833 -0.54232,-0.48015 -0.91051,-2.78473 -1.1259,-7.047127 -1.5319,-9.657737 -1.5319,-9.850127 0,-0.13714 0.14446,-0.10953 0.38421,0.0734 0.56107,0.42816 2.11127,1.05876 3.28717,1.33716 1.16172,0.27505 4.82635,0.12454 5.69938,-0.23407 0.6459,-0.26531 0.51604,-0.66862 -0.16372,-0.50842 -0.49834,0.11744 -0.84789,-0.151 -0.43798,-0.33635 0.3536,-0.15988 0.54891,-4.30427 0.22352,-4.74302 -0.30105,-0.40596 -0.46375,-1.31496 -0.56955,-3.18201 -0.0512,-0.90389 -0.17319,-1.53619 -0.32499,-1.68464 -0.31929,-0.31223 -0.31133,-1.27954 0.0132,-1.59685 0.14088,-0.13777 0.25614,-0.49995 0.25614,-0.80485 0,-0.3049 -0.11526,-0.66708 -0.25614,-0.80485 -0.14088,-0.13777 -0.25614,-0.55631 -0.25614,-0.93009 0,-0.67842 0.11648,-0.77729 0.8538,-0.72476 1.01589,0.0724 3.98258,-1.30537 5.28411,-2.45399 0.32348,-0.28547 0.68306,-0.51905 0.79907,-0.51905 0.11601,0 0.97255,-0.34974 1.90342,-0.7772 0.93087,-0.42746 2.06972,-0.84197 2.53078,-0.92114 0.46106,-0.0792 1.00582,-0.27065 1.2106,-0.42552 0.20477,-0.15488 1.16531,-0.59565 2.13452,-0.9795 2.12649,-0.84219 4.66753,-1.92087 5.94587,-2.52406 0.51656,-0.24373 1.59236,-0.72022 2.39067,-1.05885 2.21087,-0.93783 3.44829,-1.47856 4.0129,-1.75355 0.28176,-0.13722 1.08861,-0.4986 1.793,-0.80306 2.28619,-0.98815 8.09765,-3.65615 8.60895,-3.95232 0.4358,-0.25242 0.53315,-0.2506 0.78188,0.0146 0.15625,0.16663 0.38253,0.30296 0.50284,0.30296 0.12031,0 0.67624,0.55954 1.23539,1.24342 0.86556,1.05861 0.99975,1.32028 0.90295,1.76061 -0.0625,0.28445 -0.14194,1.23431 -0.17646,2.11079 -0.0345,0.87649 -0.13491,1.67864 -0.2231,1.78256 -0.22431,0.26431 -2.0187,0.85519 -5.31427,1.74996 l -2.81757,0.76499 -0.64084,-0.68192 c -0.83097,-0.8842 -1.40361,-0.88366 -3.33304,0.003 -3.77517,1.73521 -7.39045,3.33919 -7.52629,3.33919 -0.0821,0 -0.41611,0.21331 -0.74215,0.47402 -0.39919,0.31921 -1.61996,0.75109 -3.7379,1.3224 -1.72981,0.46661 -4.64684,1.29458 -6.4823,1.83993 -2.90002,0.86165 -3.56225,0.99154 -5.05522,0.99154 -1.58698,0 -1.75251,0.0376 -2.16988,0.49342 -0.24851,0.27139 -0.45184,0.62248 -0.45184,0.78022 0,0.43205 0.39957,0.73555 0.80422,0.61086 0.23646,-0.0729 0.4909,0.044 0.74329,0.3414 0.38165,0.4497 0.38317,0.47675 0.27717,4.92031 -0.0586,2.45747 -0.0587,4.94447 -1.8e-4,5.52667 l 0.1064,1.05853 1.25447,-0.0949 1.25447,-0.0949 v 0.85959 c 0,0.76553 -0.0824,0.94385 -0.75288,1.62978 l -0.75287,0.7702 -0.28848,4.024257 c -0.17901,2.49705 -0.37663,4.18853 -0.52075,4.45714 -0.12775,0.2381 -0.60046,0.59116 -1.05048,0.7846 -0.45001,0.19344 -1.15456,0.51927 -1.56565,0.72408 -0.71563,0.35652 -2.57514,0.47122 -3.77775,0.23301 z m 115.77649,-1.47033 c 0.33441,-0.25465 0.56047,-0.25465 0.4269,0 -0.058,0.11067 -0.23547,0.19983 -0.39429,0.19814 -0.24885,-0.003 -0.25335,-0.03 -0.0326,-0.19814 z m -3.47745,-9.558837 c -0.26901,-0.16531 -0.57638,-0.30365 -0.68304,-0.3074 -0.10667,-0.004 -0.50131,-0.18178 -0.87698,-0.3956 -0.87493,-0.49799 -1.10996,-0.49799 -1.10996,0 0,0.50109 -0.20339,0.51336 -0.5712,0.0345 -0.41342,-0.53829 -0.3489,-0.77338 0.25103,-0.91477 1.40681,-0.33153 2.81115,0.1172 3.39609,1.08517 0.53459,0.88464 0.43062,1.01224 -0.40594,0.49814 z m 45.70889,-2.64055 c -0.0503,-0.1545 -0.0104,-0.39589 0.0885,-0.53642 0.099,-0.14052 0.19655,-1.25565 0.21683,-2.47805 l 0.0369,-2.22254 0.73187,-0.25463 c 0.40252,-0.14004 0.81301,-0.19552 0.91222,-0.12328 0.10892,0.0793 0.18036,1.00596 0.18036,2.33913 0,2.52657 0.0338,2.58299 1.25611,2.09402 0.8644,-0.3458 1.13456,-0.27841 1.13456,0.28303 0,0.75196 -0.51463,0.97098 -2.53173,1.07751 -1.55667,0.0822 -1.95193,0.0473 -2.02556,-0.17877 z m -103.57234,-0.48751 c -0.62904,-0.39139 -1.18275,-1.19677 -0.8228,-1.19677 0.18112,0 1.88479,1.38114 1.88479,1.52797 0,0.18512 -0.46548,0.04 -1.06199,-0.3312 z m -4.65948,-0.59436 c -0.45652,-0.59441 -0.21212,-0.6879 0.25772,-0.0986 0.22024,0.27623 0.3221,0.50224 0.22636,0.50224 -0.0957,0 -0.31357,-0.18165 -0.48408,-0.40366 z m -1.31789,-1.03899 c -0.0705,-0.24941 -1.91931,-0.27136 -4.82859,-0.0573 -0.98102,0.0722 -1.44421,0.0452 -1.28071,-0.0746 0.39373,-0.28842 5.9136,-0.51938 6.05317,-0.25328 0.0629,0.11998 0.26356,0.21814 0.44586,0.21814 0.18229,0 0.33144,0.0905 0.33144,0.20121 0,0.28252 -0.64016,0.2522 -0.72117,-0.0342 z m -53.7815,-0.52664 c -0.25111,-0.0366 -0.56757,-0.26624 -0.70325,-0.51024 -0.24117,-0.4337 -0.23204,-0.44199 0.40788,-0.37008 0.46835,0.0526 0.68499,0.18652 0.76153,0.47068 0.12904,0.47907 0.11207,0.49399 -0.46616,0.40964 z m 13.51984,-1.20171 c 0,-0.2741 0.66292,-0.64852 0.93244,-0.52665 0.33901,0.15329 0.33578,0.40223 -0.007,0.55732 -0.37735,0.17063 -0.92522,0.15247 -0.92522,-0.0307 z m 142.07381,-0.82827 c -0.51655,-0.1957 -1.11366,-0.46664 -1.3269,-0.60211 -0.21325,-0.13546 -0.94326,-0.4152 -1.62224,-0.62164 -0.67898,-0.20644 -1.84927,-0.57176 -2.60062,-0.81182 -1.33822,-0.42757 -3.4021,-1.05963 -8.53809,-2.61478 -7.6163,-2.30618 -11.046,-3.33729 -13.77002,-4.13984 -1.66182,-0.4896 -3.22796,-0.98268 -3.48032,-1.09574 -0.25237,-0.11306 -1.23853,-0.91488 -2.19148,-1.78181 -1.68501,-1.53293 -3.84935,-3.24852 -7.57376,-6.00344 -0.99989,-0.73961 -1.73281,-1.37821 -1.6287,-1.4191 0.10411,-0.0409 0.40582,0.0542 0.67046,0.21142 0.50532,0.3001 7.88376,3.19225 17.8135,6.98239 7.47812,2.85438 19.55886,7.48845 21.72231,8.3325 1.13763,0.44384 1.74488,0.58937 1.93528,0.46382 0.19662,-0.12965 0.38526,-0.0667 0.64746,0.21612 0.20351,0.21949 0.68254,0.58377 1.0645,0.8095 0.74522,0.44043 1.21457,0.97382 1.03896,1.18074 -0.0595,0.0701 -0.0227,0.24905 0.0819,0.39756 0.2872,0.40777 -0.12993,0.8758 -0.76903,0.86285 -0.29374,-0.006 -0.95671,-0.17093 -1.47326,-0.36662 z m -143.09838,-2.22711 c 0,-1.78607 0.0413,-2.05699 0.38422,-2.52335 0.43154,-0.58681 1.90969,-1.09067 3.23439,-1.10252 1.36567,-0.0122 1.06076,0.3272 -0.631,0.70243 -2.12381,0.47106 -2.18428,0.55514 -2.00269,2.78429 0.15187,1.86441 0.0756,2.14006 -0.59217,2.14006 -0.38349,0 -0.39275,-0.0471 -0.39275,-2.00091 z m 20.02182,1.65312 c 0.3522,-0.0434 0.92852,-0.0434 1.28072,0 0.35219,0.0434 0.064,0.0789 -0.64036,0.0789 -0.70439,0 -0.99255,-0.0355 -0.64036,-0.0789 z m 2.61141,-0.0407 c -0.12628,-0.24077 0.19495,-0.47934 0.4224,-0.31369 0.19097,0.13907 0.0656,0.501 -0.17355,0.501 -0.0828,0 -0.19481,-0.0843 -0.24885,-0.18731 z m 1.49012,-0.15334 c 0.16615,-0.051 0.39668,-0.0477 0.51229,0.007 0.11561,0.0551 -0.0203,0.0969 -0.30208,0.0928 -0.28176,-0.004 -0.37635,-0.0492 -0.21021,-0.10021 z m -21.2204,-0.26299 c 0,-0.11067 0.1729,-0.21597 0.38422,-0.23401 0.21131,-0.018 -0.0365,-0.0859 -0.55062,-0.15091 -0.91579,-0.1157 -0.93538,-0.13161 -0.96227,-0.78079 -0.034,-0.8205 0.26963,-1.19726 1.09147,-1.35448 0.9956,-0.19046 5.27852,-1.09988 6.72634,-1.42825 1.51773,-0.34423 3.28949,-0.36786 6.28876,-0.0839 1.17399,0.11116 3.00004,0.26287 4.05789,0.33712 1.05786,0.0743 1.8899,0.17445 1.84899,0.22266 -0.12482,0.14708 -1.22997,0.40424 -5.83789,1.3584 -2.43288,0.50378 -4.69237,1.04573 -5.02108,1.20433 -0.35934,0.17338 -1.85739,0.3825 -3.75676,0.52443 -1.7375,0.12983 -3.2321,0.31493 -3.32132,0.41132 -0.22323,0.24118 -0.94773,0.22134 -0.94773,-0.0259 z m 14.42937,-0.40242 c -0.0601,-0.11458 0.087,-0.20122 0.34153,-0.20122 0.25455,0 0.40161,0.0866 0.34152,0.20122 -0.058,0.11066 -0.21173,0.20121 -0.34152,0.20121 -0.1298,0 -0.28348,-0.0906 -0.34153,-0.20121 z m 80.81302,0.0679 c 0.1174,-0.0558 0.30951,-0.0558 0.4269,0 0.1174,0.0558 0.0213,0.10149 -0.21345,0.10149 -0.2348,0 -0.33085,-0.0457 -0.21345,-0.10149 z m -78.46269,-0.21234 c 0.25956,-0.0462 0.64378,-0.045 0.85381,0.003 0.21002,0.0478 -0.002,0.0856 -0.47195,0.0841 -0.46959,-0.002 -0.64143,-0.0406 -0.38186,-0.0868 z m 3.88248,-0.0568 c 0,-0.11066 0.0768,-0.20121 0.17076,-0.20121 0.0939,0 0.17076,0.0906 0.17076,0.20121 0,0.11067 -0.0768,0.20122 -0.17076,0.20122 -0.0939,0 -0.17076,-0.0906 -0.17076,-0.20122 z m 72.61645,0.0625 c 0.16436,-0.0506 0.43331,-0.0506 0.59767,0 0.16435,0.0506 0.0299,0.092 -0.29884,0.092 -0.32871,0 -0.46319,-0.0414 -0.29883,-0.092 z m 53.48216,-0.15835 c -0.28857,-0.25939 -0.29868,-0.32678 -0.0764,-0.50943 0.23818,-0.19574 1.14659,-0.12286 1.34225,0.10769 0.12152,0.14317 -0.16801,0.42957 -0.58279,0.57652 -0.19971,0.0708 -0.49353,-0.004 -0.68305,-0.17478 z m -127.66748,-0.0416 c 0.12326,-0.0581 0.27055,-0.051 0.32729,0.0159 0.0567,0.0669 -0.0441,0.11442 -0.22413,0.10568 -0.19892,-0.01 -0.23939,-0.0573 -0.10316,-0.12157 z m 71.14757,-0.0766 c -0.0764,-0.14575 0.0974,-0.16933 0.54489,-0.0739 0.87202,0.18595 0.93699,0.28796 0.18342,0.28796 -0.33882,0 -0.66657,-0.0963 -0.72831,-0.21404 z m -1.2313,-0.12587 c 0.16436,-0.0506 0.43331,-0.0506 0.59767,0 0.16436,0.0506 0.0299,0.092 -0.29883,0.092 -0.32872,0 -0.46319,-0.0414 -0.29884,-0.092 z m 60.18804,0.0148 c -0.23289,-0.27442 -0.12121,-0.47979 0.26164,-0.48111 0.21131,-8e-4 0.61474,-0.18122 0.8965,-0.4011 0.28175,-0.21987 0.67958,-0.40037 0.88406,-0.4011 0.22005,-8e-4 0.58401,-0.3047 0.89179,-0.74466 0.51751,-0.73979 0.86327,-0.8082 0.60897,-0.12049 -0.0734,0.19844 -0.11926,0.46712 -0.10196,0.59706 0.0173,0.12995 -0.12435,0.29454 -0.31477,0.36575 -0.19041,0.0712 -0.42234,0.29708 -0.51537,0.50193 -0.0931,0.20484 -0.38113,0.42023 -0.64019,0.47863 -1.19089,0.26849 -1.85795,0.33791 -1.97067,0.20509 z m -6.85404,-0.65501 c -0.0505,-0.0964 -0.333,-0.23204 -0.6277,-0.30149 -0.46151,-0.10876 -0.52441,-0.19642 -0.45374,-0.63215 0.0605,-0.37301 0.0143,-0.49201 -0.17576,-0.45305 -0.14182,0.0291 -0.29144,-0.0604 -0.33249,-0.19869 -0.041,-0.13834 0.0443,-0.25152 0.18973,-0.25152 0.42984,0 0.56189,-0.5489 0.87031,-3.6178 l 0.2928,-2.91356 -0.35798,-0.28008 c -0.19689,-0.15405 -0.35799,-0.41595 -0.35799,-0.582 0,-0.25187 0.0445,-0.25834 0.2688,-0.0391 0.14784,0.14458 0.74338,0.3678 1.3234,0.49606 0.67087,0.14834 1.03752,0.32341 1.00765,0.48113 -0.0258,0.13637 -0.12665,1.21451 -0.22404,2.39586 -0.0974,1.18136 -0.24871,2.46483 -0.3363,2.85217 -0.0876,0.38733 -0.15966,0.97135 -0.16017,1.29782 -0.002,0.94534 -0.3218,0.34459 -0.53783,-1.00883 -0.28328,-1.77466 -0.31103,-1.86172 -0.47689,-1.49627 -0.21398,0.4715 -0.3435,2.86289 -0.17512,3.2336 0.0832,0.18317 0.38473,0.44698 0.67007,0.58626 0.28535,0.13927 0.51881,0.33278 0.51881,0.43002 0,0.22939 -0.80534,0.23077 -0.92556,0.002 z m -113.18401,-2.18043 c 0.21241,-0.0481 0.51978,-0.0463 0.68305,0.004 0.16326,0.0504 -0.0105,0.0897 -0.38621,0.0875 -0.37567,-0.002 -0.50925,-0.0434 -0.29684,-0.0916 z m -41.51134,-0.39425 c -0.0626,-0.0738 -0.11384,-1.0666 -0.11384,-2.20626 0,-1.81494 0.0395,-2.097 0.31794,-2.27262 0.63757,-0.40206 0.85245,0.11977 0.90531,2.19847 0.0267,1.05133 -0.0116,2.0247 -0.0851,2.16303 -0.14123,0.26564 -0.83136,0.34472 -1.0243,0.11738 z m 50.04271,-0.21593 c -0.56477,-0.0417 -0.94377,-0.15444 -0.88642,-0.26378 0.0551,-0.10505 0.26855,-0.19302 0.47432,-0.19548 0.20578,-0.002 0.55632,-0.16956 0.77899,-0.37133 0.38383,-0.34781 0.41043,-0.52173 0.51229,-3.34962 0.0724,-2.01015 0.17298,-3.00833 0.30847,-3.06118 0.15019,-0.0586 0.1845,0.69328 0.13565,2.97252 l -0.0654,3.05093 0.50015,0.22245 c 0.51031,0.22697 0.75738,0.63288 0.58513,0.96129 -0.0939,0.17908 -0.33172,0.18255 -2.34318,0.0342 z m 6.19484,-0.25357 c 0.5617,-0.36235 1.3843,-0.55801 1.14107,-0.27141 -0.0612,0.0721 0.0221,0.25027 0.18499,0.39603 0.25456,0.22777 0.14021,0.26472 -0.81377,0.26297 l -1.10995,-0.002 z m -11.27028,-0.14714 c -0.23479,-0.0508 -0.5501,-0.24678 -0.70068,-0.43554 -0.22475,-0.28172 -0.56121,-0.33697 -1.87838,-0.30844 -0.88253,0.0191 -1.83513,0.14457 -2.11688,0.27878 -0.34406,0.16388 -0.98895,0.20281 -1.96377,0.11854 -4.81294,-0.41609 -7.95807,-0.76734 -8.07756,-0.90211 -0.0754,-0.0851 0.73142,-0.31138 1.793,-0.5029 1.06158,-0.19152 3.58226,-0.70234 5.60152,-1.13515 5.48526,-1.17573 5.79765,-1.12233 7.43363,1.2708 0.7425,1.08613 0.94896,1.26875 1.49524,1.32258 0.34858,0.0344 0.63379,0.14753 0.63379,0.25152 0,0.18915 -1.41561,0.21588 -2.21991,0.0419 z m 28.47486,-0.0713 c -1.27627,-0.22026 -1.66526,-0.47786 -1.66526,-1.10282 0,-0.64579 -0.45195,-0.85689 -0.77925,-0.36396 -0.23212,0.34959 -0.24231,0.33294 -0.13853,-0.22628 0.0616,-0.332 0.13107,-0.63127 0.15434,-0.66505 0.0788,-0.11428 3.06621,1.81179 3.40551,2.1956 0.18523,0.20954 0.26207,0.36993 0.17076,0.35643 -0.0913,-0.0135 -0.60772,-0.10076 -1.14757,-0.19392 z m -4.05592,-0.56369 c 0,-0.57591 0.30362,-1.43119 0.50806,-1.43119 0.0962,0 0.17499,0.30182 0.17499,0.67071 0,0.8354 0.14844,1.02517 0.50472,0.64524 0.16287,-0.17368 0.43431,-0.24595 0.6612,-0.17604 0.71193,0.21938 0.26986,0.56975 -0.79526,0.6303 -0.95388,0.0542 -1.05371,0.0221 -1.05371,-0.33902 z m -11.44104,-1.27552 c 0,-0.1726 0.12613,-0.37086 0.2803,-0.44057 0.24402,-0.11034 0.25027,-0.0806 0.0483,0.22999 -0.12759,0.1962 -0.25372,0.39446 -0.2803,0.44057 -0.0266,0.0461 -0.0483,-0.0574 -0.0483,-0.22999 z m -37.7184,-0.13688 c -0.17143,-0.12793 -0.0778,-0.21342 0.34152,-0.31178 0.9929,-0.23293 2.91205,-0.73148 4.33447,-1.126 0.75136,-0.20839 2.59558,-0.70733 4.09829,-1.10876 2.66326,-0.71145 6.46457,-1.74523 9.22113,-2.50773 1.31101,-0.36264 2.64448,-0.72615 5.97667,-1.62929 0.84527,-0.2291 2.47422,-0.68233 3.61989,-1.00718 2.48152,-0.70362 3.46672,-0.5749 3.46672,0.45293 0,0.40447 -0.5791,0.53754 -0.76843,0.17658 -0.2254,-0.42974 -2.42393,-0.01 -7.17199,1.37035 -1.12703,0.32757 -2.81757,0.79129 -3.75676,1.03047 -0.93919,0.23919 -2.13026,0.56447 -2.64681,0.72283 -0.51655,0.15837 -1.40025,0.38804 -1.96376,0.51038 -0.56351,0.12235 -1.63931,0.40612 -2.39067,0.63061 -1.38722,0.41448 -5.07319,1.44748 -6.31818,1.77069 -0.66053,0.17148 -2.26963,0.6383 -3.50062,1.01556 -0.76249,0.23368 -2.23417,0.23967 -2.54147,0.0103 z m -17.05344,-2.36539 c -0.46451,-0.22086 -0.21342,-0.67159 0.37413,-0.67159 0.69649,0 0.92319,0.29703 0.45299,0.59355 -0.35796,0.22574 -0.49024,0.23822 -0.82712,0.078 z m 1.79645,-0.38246 c -0.23592,-0.278 0.0573,-0.47602 0.53735,-0.36289 0.52793,0.12441 1.77097,-0.43092 2.52136,-1.12643 0.243,-0.22523 0.58514,-0.40951 0.76031,-0.40951 0.4634,0 0.41019,0.74402 -0.0657,0.91902 -0.21131,0.0777 -0.43541,0.23535 -0.498,0.35032 -0.0626,0.11497 -0.56206,0.27639 -1.10995,0.35872 -0.54789,0.0823 -1.22723,0.20933 -1.50963,0.28224 -0.28241,0.0729 -0.56848,0.0678 -0.63572,-0.0115 z m -6.0391,-0.56842 c -0.0554,-0.16996 -0.24723,-0.36385 -0.42639,-0.43085 -0.32826,-0.12277 -0.46405,-0.69835 -0.16474,-0.69835 0.32953,0 1.3879,0.86288 1.3262,1.08125 -0.10061,0.35609 -0.62361,0.39021 -0.73507,0.048 z m -1.09366,-1.53162 c 0,-0.11067 0.0768,-0.20121 0.17076,-0.20121 0.0939,0 0.17076,0.0905 0.17076,0.20121 0,0.11067 -0.0768,0.20121 -0.17076,0.20121 -0.0939,0 -0.17076,-0.0905 -0.17076,-0.20121 z m 11.01259,-0.27637 c -0.14607,-0.26267 -0.3029,-0.9644 -0.34853,-1.5594 -0.0591,-0.77108 -0.0365,-0.96623 0.0789,-0.67939 0.089,0.22134 0.16722,0.64934 0.17382,0.95112 0.008,0.37128 0.16385,0.66063 0.4816,0.89486 0.25828,0.19039 0.50579,0.3785 0.55003,0.41801 0.09,0.0803 -0.35264,0.4445 -0.54609,0.4493 -0.0683,0.002 -0.24364,-0.21183 -0.3897,-0.4745 z m -1.35386,-0.76794 c -0.0543,-0.47697 -0.17874,-2.0443 -0.27658,-3.48297 -0.19215,-2.82521 -0.40776,-4.8381 -0.66293,-6.18882 -0.0887,-0.4695 -0.21502,-1.57799 -0.28073,-2.46333 -0.15505,-2.0889 -0.28981,-2.51534 -0.75006,-2.37352 -0.19587,0.0603 -0.46566,0.29402 -0.59955,0.51926 -0.13389,0.22524 -0.45812,0.43018 -0.72052,0.45543 -0.26239,0.0252 -0.92211,0.23374 -1.46603,0.4633 -1.31914,0.55675 -2.2579,0.7626 -2.09937,0.46035 0.0661,-0.12598 0.24118,-0.22906 0.3891,-0.22906 0.3098,0 3.4975,-1.32144 4.18491,-1.73483 0.25361,-0.15251 0.62374,-0.2773 0.82251,-0.2773 0.19877,0 0.61278,-0.22593 0.92003,-0.50207 0.30724,-0.27613 0.60949,-0.44213 0.67165,-0.36889 0.0622,0.0733 0.11346,0.81982 0.114,1.65905 5.1e-4,0.83922 0.11103,3.06513 0.24555,4.94647 0.13452,1.88134 0.28638,4.23553 0.33747,5.23153 0.15227,2.96825 -0.55618,6.28682 -0.82945,3.8854 z m 50.19034,-2.61819 c -0.13756,-0.41801 0.023,-0.76418 0.35454,-0.76418 0.31145,0 0.3121,0.21978 0.002,0.71609 -0.22331,0.35753 -0.25349,0.3616 -0.35666,0.0481 z m 6.99412,-0.071 c -0.31831,-0.30048 -0.31621,-0.3042 0.0527,-0.0935 0.21132,0.12066 0.38421,0.26148 0.38421,0.31292 0,0.15397 -0.0885,0.1095 -0.43695,-0.2194 z m -76.96082,-4.0458 c 0.1174,-0.0558 0.3095,-0.0558 0.4269,0 0.1174,0.0558 0.0213,0.10149 -0.21345,0.10149 -0.2348,0 -0.33085,-0.0457 -0.21345,-0.10149 z m -0.67238,-0.2054 c 0.12327,-0.0581 0.27055,-0.051 0.3273,0.0159 0.0567,0.0669 -0.0441,0.11442 -0.22413,0.10568 -0.19893,-0.01 -0.23939,-0.0573 -0.10317,-0.12156 z m 112.6412,-5.05756 c -1.94014,-1.17563 -3.72994,-2.59005 -3.03383,-2.39754 0.22814,0.0631 0.40879,-0.006 0.4648,-0.17812 0.0504,-0.15472 0.28952,-0.38757 0.5314,-0.51743 0.39195,-0.21043 0.43426,-0.33566 0.389,-1.15141 -0.0452,-0.81548 -0.10664,-0.93748 -0.56306,-1.11861 -0.28175,-0.11181 -0.61611,-0.36828 -0.74301,-0.56992 -0.20393,-0.32405 -0.26341,-0.33242 -0.51228,-0.0721 -0.31006,0.32429 -3.40479,1.18251 -4.19371,1.16298 -0.42253,-0.0105 -5.05285,-2.48955 -5.05285,-2.70532 0,-0.0411 0.56347,-0.032 1.25216,0.02 1.0529,0.0796 1.38577,0.0217 2.09183,-0.36408 0.79168,-0.43254 1.05932,-0.45981 4.68182,-0.47703 3.77844,-0.0179 3.8604,-0.0273 4.94381,-0.56458 0.60592,-0.30048 1.13083,-0.51196 1.16648,-0.46996 0.0356,0.042 -0.0212,0.26565 -0.12625,0.497 -0.13872,0.30542 -0.14313,1.09552 -0.0161,2.88451 0.0962,1.35513 0.1906,3.30656 0.2097,4.33651 0.0254,1.37074 0.0994,1.91526 0.27594,2.03169 0.13266,0.0875 0.2141,0.30251 0.18097,0.47784 -0.0484,0.25618 -0.43062,0.0943 -1.94683,-0.82442 z m -102.05397,0.83209 c 0.12327,-0.0581 0.27055,-0.051 0.3273,0.0159 0.0567,0.0669 -0.0441,0.11442 -0.22413,0.10568 -0.19893,-0.01 -0.23939,-0.0573 -0.10317,-0.12157 z m 0.5443,-0.1786 c 0,-0.16407 1.76284,-1.08995 2.04915,-1.07626 0.14087,0.007 -0.0896,0.19536 -0.51229,0.41916 -1.14385,0.6057 -1.53686,0.77373 -1.53686,0.6571 z m 159.89764,-2.38763 c -0.29318,-0.15035 -0.65819,-0.48387 -0.81112,-0.74114 -0.3577,-0.60174 -0.36164,-2.21987 -0.007,-3.02709 0.19461,-0.44343 0.2186,-0.67813 0.0854,-0.8351 -0.2327,-0.27419 -0.23723,-1.4186 -0.009,-2.38494 0.19365,-0.82152 1.18915,-1.97838 1.70245,-1.97838 0.18126,0 0.41182,-0.18109 0.51235,-0.40242 0.21827,-0.48057 0.72613,-0.52433 1.03275,-0.089 0.12143,0.17239 0.46521,0.43378 0.76396,0.58087 0.29876,0.14708 0.72751,0.57194 0.95278,0.94413 0.37892,0.626 0.4061,0.83503 0.36285,2.78944 -0.0257,1.162 -0.0833,2.2516 -0.12787,2.42132 -0.15206,0.5787 -1.07368,1.05124 -1.75608,0.9004 -0.60873,-0.13456 -0.6178,-0.12775 -0.32952,0.24762 0.43806,0.57035 0.36916,0.77937 -0.37205,1.12883 -0.3677,0.17336 -0.71802,0.40955 -0.77852,0.52488 -0.14703,0.28033 -0.57311,0.2526 -1.22056,-0.0794 z m 2.66759,-3.63452 c -0.11693,-0.166 -0.40469,-0.30181 -0.63949,-0.30181 -0.3601,0 -0.39364,0.0472 -0.21432,0.30181 0.11692,0.16601 0.40468,0.30182 0.63948,0.30182 0.3601,0 0.39364,-0.0472 0.21433,-0.30182 z m -1.63933,-0.42253 c 0.45653,-0.20643 0.007,-0.88535 -0.58659,-0.88535 -0.60176,0 -0.64958,0.26133 -0.12675,0.69284 0.44032,0.3634 0.3746,0.34567 0.71334,0.19251 z m 0.53245,-2.02438 c 0.21972,-0.2589 0.25807,-0.53486 0.17025,-1.22492 -0.098,-0.77002 -0.0741,-0.88152 0.17616,-0.82278 0.15923,0.0374 0.37627,0.37616 0.48231,0.75289 0.22083,0.78463 0.61372,1.14832 1.0348,0.95791 0.50173,-0.22686 0.27361,-1.18861 -0.36601,-1.54307 -0.3017,-0.16719 -0.65559,-0.47649 -0.78643,-0.68731 -0.26729,-0.43073 -0.79954,-0.31516 -0.79954,0.17361 0,0.16663 -0.24974,0.45375 -0.55497,0.63803 -0.30524,0.18428 -0.61143,0.43561 -0.68044,0.5585 -0.15746,0.28044 -0.16876,1.21817 -0.0169,1.39718 0.21825,0.25717 1.05916,0.1317 1.3407,-0.20004 z m -4.87385,2.05026 c -1.43399,-0.3705 -1.56654,-0.52354 -0.3551,-0.40998 0.60077,0.0563 1.34999,0.10239 1.66493,0.10239 0.39514,0 0.57261,0.0935 0.57261,0.30182 0,0.35816 -0.51244,0.35973 -1.88244,0.006 z m -52.96077,-2.7534 c -0.0696,-1.76687 0.18863,-2.64278 0.75134,-2.54867 0.36835,0.0616 0.38968,0.16072 0.43616,2.02659 l 0.0489,1.96183 h -0.58984 -0.58984 z m -94.58733,0.58459 c -0.10821,-0.249 -0.36066,-0.60917 -0.56098,-0.80037 -0.32248,-0.3078 -0.32935,-0.34816 -0.0599,-0.35212 0.40844,-0.006 1.41726,0.50143 1.56791,0.78866 0.14514,0.2767 -0.19935,0.81656 -0.52104,0.81656 -0.12607,0 -0.31776,-0.20373 -0.42598,-0.45273 z m 156.02646,-0.35212 c 0.31287,-0.72397 1.08836,-1.84464 1.08836,-1.57281 0,0.16417 -0.27422,0.65312 -0.60939,1.08656 -0.33518,0.43344 -0.55071,0.65225 -0.47897,0.48625 z m -68.03053,-1.00606 c -0.11731,-0.22134 -0.36179,-0.40243 -0.54329,-0.40243 -0.18149,0 -0.37749,-0.0905 -0.43553,-0.20121 -0.058,-0.11067 -0.34049,-0.20121 -0.62766,-0.20121 -0.46041,0 -0.50905,-0.0535 -0.41147,-0.45273 0.47001,-1.92295 0.65438,-4.30246 0.735,-9.48572 0.0776,-4.98814 0.0536,-5.7436 -0.21587,-6.79221 -0.16674,-0.64891 -0.25591,-1.23551 -0.19817,-1.30356 0.0577,-0.068 0.93455,-0.13537 1.94844,-0.14962 l 1.84344,-0.0259 0.0475,2.76667 c 0.027,1.57236 -0.0197,2.76667 -0.10815,2.76667 -0.0856,0 -0.20076,-0.20319 -0.25588,-0.45153 -0.0929,-0.41876 -0.12057,-0.42755 -0.38066,-0.12108 -0.34016,0.40082 -0.73255,4.67546 -0.87011,9.47895 -0.10044,3.50743 -0.0395,4.08729 0.44902,4.26998 0.47419,0.17734 0.24161,0.70735 -0.3104,0.70735 -0.268,0 -0.54002,-0.16431 -0.66622,-0.40242 z m 2.41051,-0.0494 c -0.0438,-0.0835 0.0594,-0.15138 0.22928,-0.15083 0.58567,0.002 1.98661,-0.70662 2.48859,-1.25857 0.6105,-0.67127 0.69519,-0.68691 0.54472,-0.10061 -0.21243,0.82769 -1.08035,1.44932 -2.1785,1.56031 -0.55245,0.0558 -1.0403,0.0332 -1.08409,-0.0503 z m -96.63203,-0.43516 c -0.71447,-0.38304 -0.90882,-0.6061 -1.14477,-1.31388 -0.18023,-0.54064 -0.23069,-0.97489 -0.13795,-1.18705 0.35166,-0.80441 0.60386,-2.22805 0.57252,-3.23179 -0.0352,-1.1272 0.19949,-1.90374 0.74217,-2.45576 0.58194,-0.59194 1.7374,-1.24352 1.96731,-1.10939 2.41188,1.4071 2.49164,1.57457 2.57448,5.40563 0.0678,3.13628 -0.0387,3.89705 -0.37659,2.69055 -0.22513,-0.80379 -0.36617,-0.88597 -0.70205,-0.40909 -0.1538,0.21837 -0.43018,0.29616 -0.87472,0.2462 -0.79505,-0.0893 -0.8164,0.034 -0.0949,0.54817 l 0.55498,0.3955 -0.55475,0.063 c -0.33463,0.038 -0.62498,0.21767 -0.73175,0.45273 -0.22873,0.50361 -0.72682,0.47727 -1.79398,-0.0949 z m 2.65357,-3.14359 c 0,-0.2849 -0.40727,-0.44444 -0.88408,-0.34632 l -0.39663,0.0816 0.4269,0.22336 c 0.54975,0.28763 0.85381,0.30235 0.85381,0.0413 z m -1.53685,-0.78393 c 0,-0.2178 -0.82828,-1.02067 -1.05296,-1.02067 -0.32544,0 -0.36263,0.667 -0.0521,0.93455 0.35954,0.30979 1.10506,0.36789 1.10506,0.0861 z m 0.27355,-2.05994 c 0.067,-0.12774 0.11026,-0.57998 0.0961,-1.00498 -0.0215,-0.64779 0.0293,-0.77273 0.3146,-0.77273 0.25886,0 0.3403,0.13482 0.3403,0.5634 0,0.68424 0.27772,1.0463 0.80258,1.0463 0.325,0 0.39275,-0.10714 0.39275,-0.62111 0,-0.50536 -0.0955,-0.66359 -0.51229,-0.84897 -0.28175,-0.12531 -0.51228,-0.34063 -0.51228,-0.47847 0,-0.30909 -0.52141,-0.64505 -0.81112,-0.52265 -0.1174,0.0496 -0.21345,0.211 -0.21345,0.35867 0,0.14766 -0.28816,0.43439 -0.64036,0.63717 -0.54921,0.31621 -0.64791,0.47637 -0.69345,1.12519 -0.0446,0.63536 0.0101,0.78459 0.34152,0.93198 0.40697,0.18098 0.8761,0.004 1.09508,-0.4138 z m 88.46339,5.55687 c -0.92692,-1.06074 -0.75696,-1.17109 0.40071,-0.26018 0.56351,0.44341 1.02457,0.84397 1.02457,0.89015 0,0.0462 -0.18032,0.084 -0.40071,0.084 -0.22793,0 -0.66971,-0.30784 -1.02457,-0.71393 z m -84.53706,-5.34838 c 0.17892,-0.2356 0.87111,-0.90549 1.53821,-1.48865 0.6671,-0.58316 1.41283,-1.29586 1.65717,-1.58377 0.24434,-0.28792 0.5438,-0.5194 0.66547,-0.51441 0.28893,0.0118 -1.5378,2.00187 -2.87418,3.1311 -1.13847,0.96199 -1.49683,1.12752 -0.98667,0.45573 z m 88.05417,-13.60429 c -0.83687,-0.056 -1.06726,-0.14059 -1.06726,-0.39178 0,-0.17619 0.13157,-0.43371 0.29239,-0.57226 0.25795,-0.22226 0.26314,-0.29346 0.044,-0.60451 -0.18558,-0.26349 -0.23478,-0.79266 -0.19471,-2.09433 0.046,-1.49434 0.006,-1.81163 -0.28443,-2.23366 -0.33794,-0.49176 -0.33946,-0.49196 -4.75093,-0.6286 -2.42709,-0.0752 -5.94278,-0.32462 -7.81265,-0.55433 -1.86987,-0.22969 -3.82936,-0.43212 -4.35443,-0.44983 -0.7089,-0.0239 -0.8008,-0.0552 -0.35699,-0.12147 0.32871,-0.0491 4.24173,0.0692 8.69558,0.26285 l 8.09792,0.35212 0.29593,-0.43062 c 0.16276,-0.23685 0.34928,-0.88768 0.41448,-1.4463 0.14709,-1.2602 0.69655,-2.07141 1.66644,-2.46035 0.61839,-0.24798 0.82145,-0.25004 1.39886,-0.0142 0.99105,0.40481 1.41813,0.97831 1.63184,2.19131 0.10313,0.58535 0.30529,1.17947 0.44926,1.32025 0.20971,0.20508 0.92926,0.21097 3.6193,0.0296 3.84316,-0.2591 7.8296,-0.0867 12.92022,0.55875 1.78446,0.22624 3.53124,0.464 3.88172,0.52835 1.00466,0.18443 0.58189,0.44265 -0.53019,0.32383 -0.87333,-0.0933 -1.05095,-0.0504 -1.3761,0.33277 -0.48304,0.56919 -0.4372,1.6847 0.0737,1.7935 0.18784,0.04 0.45679,0.18831 0.59767,0.32959 0.385,0.38609 5.64119,0.59187 15.32567,0.59999 4.6254,0.004 8.40991,0.0689 8.41001,0.1444 0,0.27083 -0.65351,0.33771 -4.52498,0.46278 -8.75511,0.28283 -11.73779,0.5546 -17.86387,1.62765 -5.03121,0.88127 -7.2896,1.12894 -10.48259,1.14958 -4.18494,0.0271 -4.25613,0.003 -8.84441,-2.96497 -0.63807,-0.41277 -1.27202,-0.6999 -1.40878,-0.63806 -0.15996,0.0723 -0.24866,0.39756 -0.24866,0.91173 0,0.43961 -0.0768,0.85525 -0.17076,0.92364 -0.0939,0.0684 -0.17076,0.30011 -0.17076,0.51491 0,0.2148 0.0768,0.39055 0.17076,0.39055 0.0939,0 0.17076,0.16878 0.17076,0.37508 0,0.29367 -0.17194,0.40284 -0.79226,0.50303 -0.43575,0.0704 -1.03128,0.11051 -1.32341,0.0892 -0.29212,-0.0213 -1.01141,-0.0709 -1.5984,-0.1102 z m 18.82649,-0.55666 c 4.50331,-0.56304 7.94042,-1.23669 7.94042,-1.55628 0,-0.11455 -0.2376,-0.1449 -0.56601,-0.0723 -1.19308,0.26373 -7.86627,0.62986 -11.13117,0.61072 -2.80793,-0.0165 -3.55188,-0.0823 -4.18367,-0.37015 -0.42263,-0.19256 -1.21027,-0.49859 -1.7503,-0.68005 -0.54004,-0.18146 -0.98188,-0.43249 -0.98188,-0.55785 0,-0.3605 -0.56146,-0.8655 -1.29204,-1.16212 -0.5685,-0.23081 -0.67995,-0.3703 -0.72523,-0.90772 -0.0521,-0.61822 -0.40519,-0.86152 -0.62954,-0.43378 -0.0581,0.11066 -0.31232,0.20409 -0.56506,0.20761 -0.50421,0.007 -1.05718,0.40995 -1.05718,0.77033 0,0.12613 0.10022,0.22933 0.22271,0.22933 0.12249,0 0.60136,0.28296 1.06416,0.62879 0.4628,0.34584 1.00929,0.62879 1.21443,0.62879 0.20514,0 0.40609,0.14714 0.44656,0.32697 0.11466,0.50954 2.79599,2.01722 4.13876,2.32718 1.6058,0.37068 4.93876,0.37515 7.85504,0.0105 z m -17.96446,-0.62871 c 0.2185,-0.25746 -0.24435,-0.879 -0.65458,-0.879 -0.55991,0 -0.59125,0.7382 -0.0367,0.86406 0.21132,0.048 0.42904,0.0995 0.48383,0.11461 0.0548,0.0151 0.14813,-0.0298 0.20744,-0.0997 z m 2.74363,-4.51543 c 0.51553,-0.47783 0.57962,-0.79025 0.16211,-0.79025 -0.29975,0 -1.07827,0.75172 -1.07827,1.04114 0,0.29953 0.45748,0.17425 0.91616,-0.25089 z m 17.62369,-0.80958 c 0,-0.37087 -0.0728,-0.40755 -0.60377,-0.30403 -0.33207,0.0648 -0.73823,0.11872 -0.90259,0.11993 -0.52639,0.004 -0.31924,0.37616 0.25614,0.4603 1.19159,0.17425 1.25022,0.16129 1.25022,-0.2762 z m -21.19517,-0.16566 c 0.10736,-0.20468 -0.34811,-0.82106 -0.60671,-0.82106 -0.0902,0 -0.21113,0.14496 -0.26883,0.32213 -0.16084,0.49388 0.6391,0.94974 0.87554,0.49893 z m 0.93638,-1.91165 c 0.2457,-0.34885 0.28371,-0.86732 0.10949,-1.49337 -0.10704,-0.38461 -0.076,-0.45858 0.16906,-0.40242 0.16511,0.0378 0.39022,0.38571 0.50024,0.77304 0.15284,0.53806 0.30751,0.71927 0.65548,0.76791 0.39099,0.0547 0.45543,-0.0107 0.45543,-0.46208 0,-0.37346 -0.14809,-0.62505 -0.51121,-0.86852 -0.28116,-0.18852 -0.51169,-0.45595 -0.51228,-0.59428 -0.002,-0.45671 -0.5301,-0.2623 -1.29574,0.47696 -0.5548,0.53568 -0.75448,0.87296 -0.75448,1.27435 0,0.30023 0.0512,0.60623 0.11384,0.68001 0.20106,0.23691 0.86252,0.14321 1.07017,-0.1516 z m 29.86391,2.82293 c -1.00304,-0.12279 -1.88658,-0.29853 -1.96341,-0.39052 -0.0768,-0.092 0.0523,-0.11817 0.28687,-0.0582 0.2346,0.06 1.4063,0.21533 2.60376,0.34517 1.19747,0.12984 2.17722,0.26919 2.17722,0.30968 0,0.11265 -1.09311,0.0401 -3.10444,-0.20617 z m -4.40908,-0.52508 c -0.4151,-0.15664 -0.41273,-0.16109 0.0854,-0.16109 0.28176,0 0.70439,0.0725 0.93919,0.16109 0.41509,0.15665 0.41273,0.1611 -0.0854,0.1611 -0.28176,0 -0.7044,-0.0725 -0.93919,-0.1611 z m -48.11214,-1.55505 c 0.3522,-0.0434 0.92852,-0.0434 1.28072,0 0.35219,0.0434 0.064,0.0789 -0.64036,0.0789 -0.70439,0 -0.99255,-0.0355 -0.64036,-0.0789 z m -3.48994,-0.19209 c 0.12327,-0.0581 0.27055,-0.051 0.32729,0.0159 0.0567,0.0669 -0.0441,0.11442 -0.22412,0.10568 -0.19893,-0.01 -0.23939,-0.0573 -0.10317,-0.12156 z"
       id="path836"
       inkscape:connector-curvature="0" />
  </g>
  <path
     style="fill:none;stroke:#000000;stroke-width:0.76099998;stroke-linecap:butt;stroke-linejoin:miter;stroke-miterlimit:4;stroke-dasharray:none;stroke-opacity:1"
     d="m 559.195,271.7834 c 0,0 31.65259,-16.31735 47.06171,-18.20194 17.054,-2.08577 27.33185,9.53447 27.33185,9.53447"
     id="path850"
     inkscape:connector-curvature="0"
     sodipodi:nodetypes="csc" />
  <path
     style="fill:none;stroke:#000000;stroke-width:1.5354203px;stroke-linecap:butt;stroke-linejoin:miter;stroke-opacity:1"
     d="M 491.5664,293.23266 491.25266,274.628"
     id="path852"
     inkscape:connector-curvature="0" />
  <path
     style="fill:none;stroke:#000000;stroke-width:0.76099998;stroke-linecap:butt;stroke-linejoin:miter;stroke-miterlimit:4;stroke-dasharray:none;stroke-opacity:1"
     d="m 635.46798,257.8071 c 0,0 -0.54972,-25.06586 -0.50207,-31.30868 0.007,-1.06054 3.8241,2.10535 5.94384,2.4304 2.07768,0.31861 4.28883,0.12403 6.28559,-0.52493 1.81542,-0.59009 4.88047,-2.96658 4.88047,-2.96658 l -0.33209,30.15112"
     id="path854"
     inkscape:connector-curvature="0"
     sodipodi:nodetypes="cssscc" />
  <path
     style="fill:none;stroke:#000000;stroke-width:1.5354203px;stroke-linecap:butt;stroke-linejoin:miter;stroke-opacity:1"
     d="m 755.19579,279.01943 -3.29755,24.89674"
     id="path856"
     inkscape:connector-curvature="0" />
  <path
     style="fill:none;stroke:#000000;stroke-width:1.5354203px;stroke-linecap:butt;stroke-linejoin:miter;stroke-opacity:1"
     d="m 582.66013,318.97008 -0.43524,32.67553"
     id="path858"
     inkscape:connector-curvature="0"
     sodipodi:nodetypes="cc" />
</svg>
